<svg width="38" height="38" viewBox="0 0 38 38" fill="none" xmlns="http://www.w3.org/2000/svg">
<g clip-path="url(#clip0_3207_374)">
<path d="M18.8517 -0.000108374C22.0463 -0.000108374 25.2434 -0.00755496 28.438 -0.000108374C30.312 0.00485602 32.0372 0.508742 33.5935 1.56864C35.2367 2.68563 36.4356 4.15757 37.0959 6.03163C37.4583 7.06174 37.6742 8.13405 37.6742 9.23863C37.6742 15.4714 37.6767 21.7042 37.6742 27.937C37.6742 29.6547 37.287 31.2855 36.4108 32.7723C35.7282 33.9315 34.8048 34.8797 33.7002 35.6542C32.7769 36.302 31.7641 36.7141 30.667 36.9772C29.7114 37.208 28.7557 37.2924 27.7827 37.2924C21.7088 37.2874 15.6348 37.3023 9.56089 37.2825C7.21769 37.275 5.11775 36.518 3.31568 35.0088C2.87881 34.6439 2.50897 34.1897 2.14408 33.7478C1.07674 32.4596 0.51328 30.9529 0.257614 29.3121C0.173219 28.7785 0.148397 28.2498 0.148397 27.7136C0.148397 21.5454 0.150879 15.3746 0.143433 9.20139C0.143433 7.7642 0.478529 6.40148 1.07922 5.1157C1.35971 4.51253 1.77175 3.95651 2.17635 3.42284C3.1593 2.12962 4.44011 1.20624 5.95177 0.630369C6.97444 0.243147 8.03682 -0.000108374 9.14388 -0.000108374C12.3782 0.00485602 15.615 -0.000108374 18.8493 -0.000108374H18.8517ZM30.811 11.5446C30.5627 11.7109 30.3394 11.6836 30.1259 11.6836C29.5103 11.6861 28.8947 11.6836 28.2791 11.6836C28.0408 11.6836 27.8025 11.6886 27.5643 11.6861C27.177 11.6811 26.8097 11.7903 26.4746 11.9591C25.926 12.2346 25.6753 12.741 25.6604 13.3243C25.6281 14.5133 25.6455 15.7047 25.6505 16.8962C25.6505 17.0029 25.72 17.1122 25.7671 17.2462C26.0005 17.2536 26.2164 17.2685 26.4324 17.2685C27.6238 17.271 28.8153 17.2685 30.0043 17.2735C30.2326 17.2735 30.4858 17.2114 30.6794 17.4423C30.6794 17.5316 30.6893 17.6285 30.6794 17.7253C30.5851 18.532 30.4908 19.3387 30.3915 20.1454C30.3145 20.756 30.2376 21.3642 30.1457 21.9723C30.1135 22.1808 30.034 22.3843 29.9695 22.6226C29.7188 22.635 29.5029 22.6549 29.2894 22.6574C28.3164 22.6599 27.3433 22.6574 26.3703 22.6623C26.1569 22.6623 25.9335 22.6177 25.715 22.7616C25.5959 22.9925 25.6406 23.2531 25.6406 23.5063C25.6406 27.2966 25.6406 31.0894 25.6406 34.8797C25.6406 35.0187 25.6281 35.1602 25.6455 35.2967C25.6629 35.4283 25.7101 35.5549 25.7498 35.7063C25.9757 35.7162 26.1717 35.7311 26.3678 35.7311C27.0629 35.7336 27.7579 35.7435 28.4529 35.7286C28.8674 35.7187 29.2819 35.6815 29.694 35.6293C31.1361 35.4457 32.4021 34.8375 33.4818 33.8918C35.202 32.3901 36.103 30.4689 36.108 28.1778C36.1254 21.8258 36.1179 15.4739 36.103 9.12196C36.103 8.55106 36.0161 7.97519 35.8995 7.41421C35.6736 6.32949 35.1871 5.35647 34.497 4.4877C33.0102 2.62109 31.0741 1.5885 28.6937 1.5736C22.163 1.53637 15.6323 1.55623 9.10168 1.56616C8.64992 1.56616 8.18823 1.61332 7.74392 1.70516C5.77057 2.10976 4.20679 3.15476 3.04512 4.7955C2.11926 6.10361 1.71218 7.583 1.7097 9.16416C1.69977 15.4168 1.70722 21.6695 1.7097 27.9221C1.7097 29.4412 2.07706 30.8561 2.87881 32.1667C3.87417 33.7875 5.32874 34.7804 7.08862 35.3811C7.8854 35.6542 8.71446 35.7237 9.55096 35.7286C10.2261 35.7336 10.9013 35.7286 11.5764 35.7286C14.1381 35.7286 16.6972 35.7286 19.2588 35.7237C19.4922 35.7237 19.7354 35.7659 19.9563 35.6368C20.0705 35.4035 20.0358 35.1627 20.0358 34.9294C20.0382 33.2613 20.0358 31.5933 20.0358 29.9277C20.0358 27.7633 20.0358 25.6013 20.0333 23.4368C20.0333 23.2035 20.0755 22.9602 19.9216 22.6946C19.723 22.6822 19.512 22.6599 19.2985 22.6599C18.2659 22.6549 17.2334 22.6599 16.2008 22.6524C15.9898 22.6524 15.7589 22.707 15.5678 22.4911C15.5529 22.3992 15.5182 22.2826 15.5182 22.1659C15.5157 20.7163 15.5132 19.2667 15.5182 17.8196C15.5182 17.6706 15.5752 17.5192 15.5951 17.4175C15.8408 17.2338 16.0667 17.271 16.2802 17.271C17.2929 17.2661 18.3057 17.271 19.3184 17.2661C19.5319 17.2661 19.7577 17.3132 19.9985 17.1295C20.0084 16.9508 20.0283 16.7373 20.0283 16.5239C20.0308 15.4317 20.0358 14.3395 20.0283 13.2474C20.0233 12.3017 20.1921 11.3882 20.5297 10.512C21.0808 9.08473 22.0389 8.0149 23.4066 7.31244C24.4193 6.79366 25.5189 6.6075 26.6285 6.57523C27.6561 6.54544 28.6887 6.61991 29.7163 6.69189C30.0787 6.71671 30.4659 6.72168 30.8209 6.9004C30.8432 7.00713 30.8805 7.10146 30.8805 7.19578C30.883 8.54609 30.883 9.89641 30.8805 11.2442C30.8805 11.3386 30.8358 11.4329 30.811 11.5371V11.5446Z" fill="white"/>
</g>
<defs>
<clipPath id="clip0_3207_374">
<rect width="37.5333" height="37.2975" fill="white" transform="translate(0.143555)"/>
</clipPath>
</defs>
</svg>
