<svg width="38" height="38" viewBox="0 0 38 38" fill="none" xmlns="http://www.w3.org/2000/svg">
<g clip-path="url(#clip0_3207_378)">
<path d="M0.000341086 18.5445C0.000341086 15.3499 0.00282328 12.1528 0.000341086 8.95825C0.000341086 6.82852 0.697838 4.92964 2.05064 3.31373C3.38357 1.72264 5.0665 0.642889 7.14658 0.233326C7.92848 0.0769481 8.70788 0 9.50715 0C15.8194 0.00744659 22.1316 -0.00496439 28.4438 0.012411C30.4048 0.0173754 32.187 0.637924 33.7706 1.79711C35.2202 2.85701 36.2479 4.25448 36.8833 5.91756C37.1489 6.61505 37.2631 7.37461 37.412 8.11182C37.5833 8.95328 37.5336 9.80964 37.5336 10.6635C37.5336 16.38 37.5411 22.0965 37.5336 27.813C37.5336 29.2974 37.2234 30.7321 36.6127 32.0849C36.2454 32.9015 35.6993 33.6189 35.1135 34.294C34.3887 35.1305 33.5001 35.7635 32.5295 36.2699C32.0232 36.533 31.4746 36.7365 30.9211 36.883C29.8661 37.1634 28.7913 37.3074 27.6892 37.3049C21.5954 37.2876 15.5017 37.3 9.40786 37.2975C7.69019 37.2975 6.05194 36.9276 4.57006 36.0465C3.79065 35.5823 3.05344 35.0536 2.4453 34.3486C1.99106 33.8199 1.56909 33.2763 1.20669 32.6831C0.819466 32.0476 0.573728 31.3601 0.372671 30.6526C0.107076 29.7119 -0.0071055 28.7587 0.000341086 27.7758C0.0226809 24.7003 0.00778767 21.6224 0.00778767 18.547H0.000341086V18.5445ZM18.7012 1.56378C15.4669 1.56378 12.2326 1.56378 8.99582 1.56627C6.99021 1.56627 5.2626 2.31341 3.83533 3.67365C2.35595 5.0885 1.56412 6.85334 1.56661 8.93094C1.56661 15.3201 1.57405 21.7118 1.56661 28.1009C1.56661 29.5903 1.93894 30.9679 2.73324 32.2189C3.35875 33.2019 4.16795 34.0185 5.17076 34.6192C6.42178 35.3688 7.78203 35.7411 9.249 35.7387C15.519 35.7337 21.7915 35.7387 28.0616 35.7287C28.5357 35.7287 29.0122 35.6865 29.4814 35.622C30.7423 35.4482 31.8792 34.9667 32.9143 34.2146C33.5497 33.7529 34.0759 33.1919 34.5227 32.559C34.9348 31.9757 35.2872 31.3601 35.5181 30.6725C35.8308 29.7392 35.9773 28.786 35.9674 27.808C35.9252 23.3053 36.0443 18.8051 35.8805 14.3024C35.8135 12.4383 35.8706 10.5717 35.8656 8.70755C35.8656 8.40968 35.8656 8.10685 35.811 7.81892C35.4362 5.89522 34.5202 4.29916 32.9366 3.11267C31.559 2.08008 30.0175 1.55137 28.285 1.55882C25.0904 1.57371 21.8958 1.56378 18.6987 1.56378H18.7012Z" fill="white"/>
<path d="M5.8509 18.6016C5.8509 16.8938 5.82607 15.1861 5.85834 13.4808C5.88565 12.1007 6.14131 10.7603 6.80654 9.52665C7.61326 8.02988 8.81464 6.99481 10.4107 6.40901C11.4681 6.02179 12.5603 5.87534 13.6773 5.84307C14.8464 5.80832 16.0155 5.76364 17.1846 5.73633C17.8374 5.72144 18.4927 5.72392 19.1455 5.73633C20.8707 5.7686 22.5958 5.77357 24.3184 5.85796C25.7755 5.92995 27.1903 6.23029 28.4339 7.06927C29.1116 7.526 29.7197 8.04974 30.2062 8.71745C31.0601 9.89401 31.4771 11.2096 31.5962 12.6443C31.8296 15.4591 31.6657 18.2764 31.7104 21.0937C31.7253 21.9674 31.7179 22.8411 31.698 23.7149C31.6682 25.0156 31.4572 26.2815 30.9111 27.4729C30.6282 28.0885 30.298 28.6768 29.7942 29.1434C29.4318 29.481 29.0793 29.836 28.6846 30.1289C27.7563 30.8164 26.6865 31.1739 25.5546 31.3526C25.1252 31.4196 24.6883 31.4444 24.2539 31.4742C20.9029 31.7125 17.5495 31.5611 14.1985 31.5686C12.8705 31.571 11.55 31.3998 10.2915 30.9058C9.52206 30.6055 8.84443 30.1785 8.23629 29.6225C6.81399 28.3218 6.15869 26.6737 5.9477 24.7897C5.8509 23.9184 5.8509 23.0472 5.84345 22.1759C5.83352 20.9845 5.84097 19.793 5.84097 18.604H5.8509V18.6016ZM29.1885 18.1498C29.1438 16.8293 29.2828 14.8832 29.0818 12.9421C29.0073 12.2248 28.8658 11.5298 28.5555 10.8794C28.0517 9.82203 27.24 9.1146 26.128 8.73731C25.4826 8.51888 24.8149 8.39725 24.1447 8.37491C22.5412 8.3203 20.9352 8.31285 19.3292 8.26817C17.7059 8.22101 16.08 8.3203 14.4542 8.35257C13.8609 8.36498 13.2702 8.38236 12.6745 8.45682C11.7833 8.56604 10.9791 8.86638 10.2469 9.36282C9.51462 9.85678 9.02811 10.5419 8.76251 11.3833C8.50436 12.2049 8.38025 13.0538 8.38274 13.9028C8.39018 17.3332 8.24125 20.766 8.4721 24.1964C8.52174 24.9336 8.63592 25.646 8.92882 26.3336C9.26888 27.1329 9.82489 27.7236 10.5323 28.1928C11.0561 28.5403 11.6543 28.6917 12.2574 28.8158C13.2329 29.0144 14.2308 29.0268 15.2162 29.0466C17.5967 29.0913 19.9796 29.0715 22.36 29.0566C23.1319 29.0516 23.9064 29.0044 24.6734 28.9225C25.1624 28.8704 25.6563 28.7612 26.1205 28.5949C26.5623 28.436 27.0116 28.2275 27.3815 27.9445C28.2478 27.2818 28.7963 26.3907 28.9552 25.2985C29.0644 24.5563 29.1612 23.8042 29.1786 23.0546C29.2133 21.6274 29.1885 20.1976 29.1885 18.1473V18.1498Z" fill="white"/>
<path d="M12.0437 18.691C12.0437 15.1638 14.928 11.9817 18.8052 12.009C22.4912 12.0363 25.5269 15.0521 25.5021 18.701C25.4773 22.3548 22.5632 25.3657 18.8325 25.3706C14.9503 25.3756 12.0908 22.3275 12.0412 18.691H12.0437ZM18.7679 14.5507C16.5439 14.5507 14.6971 16.1915 14.573 18.691C14.7294 21.0739 16.2981 22.6923 18.7853 22.8562C21.2402 22.7221 22.8213 21.0169 22.9827 18.7332C22.8561 16.3801 21.26 14.5706 18.7679 14.5507Z" fill="white"/>
<path d="M25.6408 10.2415C26.7578 10.2043 27.284 11.15 27.2964 11.8848C27.3089 12.6592 26.4922 13.4982 25.6284 13.4907C24.6752 13.4808 23.9554 12.6542 23.9877 11.8723C24.0224 11.0011 24.5139 10.2167 25.6433 10.244L25.6408 10.2415Z" fill="white"/>
</g>
<defs>
<clipPath id="clip0_3207_378">
<rect width="37.5407" height="37.3074" fill="white"/>
</clipPath>
</defs>
</svg>
