<svg width="38" height="38" viewBox="0 0 38 38" fill="none" xmlns="http://www.w3.org/2000/svg">
<g clip-path="url(#clip0_3207_388)">
<path d="M37.7158 18.9093C37.7158 22.1238 37.7158 25.3407 37.7158 28.5551C37.7158 30.3522 37.1722 31.9806 36.2041 33.4872C35.3304 34.8475 34.124 35.8155 32.7241 36.5652C31.895 37.0095 30.9816 37.2254 30.0657 37.4066C29.6213 37.4935 29.1621 37.5357 28.7079 37.5382C22.2567 37.5456 15.8079 37.5432 9.35669 37.5357C8.94216 37.5357 8.52764 37.4811 8.11559 37.419C6.43266 37.1609 4.91356 36.5304 3.60296 35.4283C1.88528 33.9837 0.788147 32.1791 0.420782 29.9476C0.346316 29.4735 0.286743 29.0069 0.286743 28.5278C0.291708 22.1163 0.286743 15.7073 0.289225 9.29576C0.289225 7.37454 0.857648 5.62211 1.97464 4.05833C2.55547 3.24665 3.26538 2.56901 4.07209 1.9708C5.44227 0.953099 7.00605 0.51375 8.65174 0.270495C8.86521 0.238226 9.08861 0.250637 9.30456 0.250637C15.7558 0.250637 22.2045 0.250637 28.6558 0.250637C29.3557 0.250637 30.0359 0.38964 30.7135 0.538572C32.533 0.935723 34.062 1.87399 35.3329 3.20693C36.2885 4.20974 36.9587 5.39871 37.3385 6.74406C37.6165 7.72453 37.7356 8.71493 37.7257 9.74007C37.7009 12.7957 37.7158 15.8537 37.7158 18.9093ZM19.0373 35.9819C22.1921 35.9843 25.347 35.9868 28.5044 35.9819C28.9214 35.9819 29.3458 36.0042 29.7504 35.9272C31.6667 35.5723 33.295 34.7085 34.5262 33.1546C35.5612 31.8515 36.147 30.3944 36.1495 28.7214C36.152 22.1734 36.1545 15.6229 36.147 9.07485C36.147 8.64294 36.1024 8.20111 36.0155 7.77666C35.7797 6.63236 35.3031 5.57991 34.5485 4.6888C33.7616 3.76046 32.8507 2.97609 31.7039 2.4871C30.7607 2.08498 29.7901 1.8169 28.7675 1.81442C22.2591 1.80201 15.7483 1.80449 9.24003 1.80449C8.96202 1.80449 8.68153 1.79953 8.40849 1.84421C6.25891 2.19916 4.48662 3.17715 3.21822 4.99163C2.35441 6.22528 1.85301 7.57808 1.85301 9.09967C1.85301 15.6278 1.85301 22.1585 1.85549 28.6867C1.85549 28.9051 1.85053 29.126 1.88031 29.3395C2.1608 31.3799 3.10404 33.0653 4.71498 34.3337C6.07523 35.406 7.63901 35.9794 9.39392 35.9744C12.6084 35.967 15.8228 35.9744 19.0397 35.9744L19.0373 35.9819Z" fill="white"/>
<path d="M31.1532 31.0374C30.6046 31.1392 26.6406 31.1342 26.1516 31.0325C25.9629 30.8637 26.0151 30.6328 26.0126 30.4219C26.0076 29.1311 26.0647 27.8379 25.9952 26.5521C25.9009 24.8468 25.953 23.1416 25.8934 21.4388C25.8711 20.786 25.7321 20.1381 25.33 19.5871C25.052 19.2048 24.6846 18.9541 24.218 18.8474C23.6893 18.7257 23.1705 18.7009 22.6294 18.8201C21.5868 19.0509 20.9712 19.6988 20.6883 20.6941C20.5245 21.2675 20.4326 21.8508 20.4326 22.454C20.4401 25.033 20.4376 27.6145 20.4326 30.1935C20.4326 30.4467 20.4053 30.6999 20.3929 30.891C20.2092 31.1069 20.028 31.1045 19.8493 31.1045C18.4394 31.1045 17.032 31.1045 15.6221 31.0995C15.4881 31.0995 15.354 31.0573 15.1927 31.03C15.1505 30.891 15.0959 30.7669 15.0785 30.6353C15.0587 30.4789 15.0686 30.3176 15.0686 30.1587C15.0686 25.2365 15.0686 20.3144 15.0686 15.3946C15.0686 15.1216 15.0959 14.8486 15.1083 14.6425C15.2945 14.4216 15.4757 14.4241 15.6544 14.4241C17.0047 14.4241 18.3525 14.4241 19.7028 14.4266C19.8344 14.4266 19.9684 14.4713 20.1124 14.4986C20.306 15.0968 20.1298 15.6999 20.2464 16.3478C20.3408 16.2634 20.4128 16.2162 20.4624 16.1517C21.3659 14.9975 22.5847 14.3794 23.9896 14.1138C24.4513 14.0269 24.9378 14.0766 25.4144 14.0567C26.0746 14.0269 26.715 14.1337 27.353 14.3025C28.2193 14.5308 28.9689 14.9677 29.6043 15.5833C30.1082 16.0723 30.4309 16.6928 30.6791 17.3506C31.0738 18.4006 31.2724 19.4903 31.2773 20.6097C31.2873 23.8639 31.2873 27.1181 31.2848 30.3747C31.2848 30.5882 31.3319 30.814 31.1532 31.0399V31.0374Z" fill="white"/>
<path d="M12.0472 30.9804C11.8859 31.0375 11.8114 31.0871 11.737 31.0871C10.2303 31.0946 8.72359 31.0995 7.21441 31.0995C7.10023 31.0995 6.98605 31.0524 6.84208 31.0226C6.80237 30.8935 6.75024 30.7669 6.73038 30.6354C6.71052 30.4988 6.72294 30.3574 6.72294 30.2183C6.72294 25.2391 6.72294 20.2623 6.72294 15.283C6.72294 15.0323 6.66833 14.7667 6.83463 14.4961C6.94882 14.4738 7.08037 14.4266 7.21193 14.4241C8.63919 14.4192 10.0689 14.4192 11.4962 14.4241C11.6501 14.4241 11.8015 14.4663 11.9082 14.4812C12.1242 14.7021 12.0894 14.9305 12.0894 15.144C12.0944 15.8191 12.0894 16.4918 12.0894 17.167C12.0894 21.4909 12.0894 25.8149 12.0894 30.1389C12.0894 30.412 12.0621 30.6825 12.0448 30.9779L12.0472 30.9804Z" fill="white"/>
<path d="M12.4598 9.2983C12.5393 10.9266 11.0624 12.4159 9.42412 12.401C7.63694 12.3862 6.304 11.1053 6.30152 9.3256C6.29903 7.58807 7.6568 6.23279 9.43901 6.24768C11.3404 6.26506 12.5095 7.87848 12.4598 9.2983Z" fill="white"/>
</g>
<defs>
<clipPath id="clip0_3207_388">
<rect width="37.439" height="37.295" fill="white" transform="translate(0.287109 0.248047)"/>
</clipPath>
</defs>
</svg>
