<svg width="17" height="17" viewBox="0 0 17 17" fill="none" xmlns="http://www.w3.org/2000/svg">
<path d="M3.78753 2.42471C3.84063 3.21233 3.97337 3.98225 4.18576 4.71677L3.12381 5.77873C2.76097 4.71677 2.53088 3.59287 2.45123 2.42471H3.78753ZM12.5133 13.062C13.2655 13.2744 14.0354 13.4071 14.8142 13.4602V14.7788C13.646 14.6992 12.5221 14.4691 11.4513 14.1151L12.5133 13.062ZM4.6371 0.654785H1.53972C1.05299 0.654785 0.654755 1.05302 0.654755 1.53975C0.654755 9.84957 7.38934 16.5842 15.6992 16.5842C16.1859 16.5842 16.5841 16.1859 16.5841 15.6992V12.6107C16.5841 12.1239 16.1859 11.7257 15.6992 11.7257C14.6018 11.7257 13.531 11.5487 12.5398 11.2213C12.4513 11.1859 12.354 11.177 12.2655 11.177C12.0354 11.177 11.8142 11.2655 11.6372 11.4337L9.69025 13.3806C7.1858 12.0974 5.13268 10.0531 3.85833 7.54866L5.80525 5.60174C6.05304 5.35395 6.12384 5.00881 6.02649 4.69907C5.69905 3.70791 5.52206 2.64596 5.52206 1.53975C5.52206 1.05302 5.12383 0.654785 4.6371 0.654785Z" fill="white"/>
</svg>
