<svg width="38" height="38" viewBox="0 0 38 38" fill="none" xmlns="http://www.w3.org/2000/svg">
<g clip-path="url(#clip0_3207_398)">
<path d="M0.436978 18.5743C0.436978 15.3995 0.446907 12.2223 0.432013 9.04761C0.427049 7.69233 0.732359 6.40903 1.27596 5.18531C1.59865 4.45802 2.07275 3.81762 2.56918 3.19459C3.31384 2.26376 4.25956 1.58116 5.28719 1.01274C6.12617 0.548565 7.04707 0.287935 7.9903 0.136521C8.43958 0.0645371 8.8963 0.00744659 9.34806 0.00744659C15.8415 0 22.33 0.00496439 28.8209 0C30.2581 0 31.6233 0.330132 32.8967 0.958128C33.6364 1.32301 34.3289 1.80207 34.937 2.38539C35.7909 3.20203 36.5356 4.10059 37.0345 5.17538C37.5483 6.28492 37.861 7.45652 37.8635 8.68272C37.8735 15.3127 37.8859 21.9401 37.8561 28.5701C37.8486 30.1215 37.4118 31.5909 36.5405 32.8965C36.1682 33.455 35.7785 34.016 35.3168 34.5025C34.9122 34.9295 34.4133 35.272 33.9342 35.6245C32.9959 36.3195 31.9385 36.744 30.7967 36.9947C29.8411 37.2032 28.8854 37.3024 27.9074 37.3024C21.8732 37.295 15.839 37.3124 9.80727 37.29C8.24597 37.2851 6.73679 36.9525 5.33187 36.2301C4.51523 35.8106 3.75816 35.2869 3.11775 34.6391C2.01317 33.527 1.19405 32.2264 0.78945 30.6874C0.543712 29.7566 0.424567 28.8257 0.429531 27.8627C0.449389 24.7674 0.436978 21.6696 0.436978 18.5743ZM2.00324 18.5594C2.00324 21.9128 2.00821 25.2663 2.00076 28.6197C2.00076 29.4488 2.19686 30.2381 2.49968 30.9902C2.98123 32.1842 3.70355 33.2143 4.73614 34.0111C5.19287 34.3635 5.65455 34.7135 6.1783 34.9518C7.31018 35.4681 8.49419 35.7436 9.75018 35.7411C16.0401 35.7287 22.3324 35.7411 28.6223 35.7337C31.0648 35.7312 33.0903 34.788 34.6615 32.9139C35.4409 31.9856 35.9398 30.9108 36.1806 29.7218C36.3345 28.9623 36.4139 28.1953 36.409 27.4183C36.399 25.929 36.409 24.4422 36.4015 22.9529C36.4015 22.5979 36.3494 22.243 36.332 21.888C36.3196 21.6497 36.3171 21.4114 36.3271 21.1756C36.3469 20.7611 36.3891 20.3466 36.4015 19.932C36.4263 19.1204 36.3444 18.3112 36.399 17.4995C36.4164 17.2463 36.3593 16.9882 36.3444 16.73C36.332 16.5339 36.3072 16.3329 36.332 16.1392C36.4388 15.3077 36.4388 14.4811 36.332 13.6496C36.3022 13.4163 36.3196 13.173 36.3519 12.9397C36.4189 12.4631 36.404 11.994 36.3568 11.5174C36.3196 11.1475 36.3494 10.7678 36.3568 10.393C36.3618 10.1745 36.3941 9.95857 36.3866 9.74262C36.3693 9.28838 36.332 8.83414 36.2997 8.3799C36.2849 8.16394 36.27 7.94551 36.2302 7.72956C36.0044 6.47605 35.5079 5.34169 34.7012 4.35129C33.897 3.36586 32.919 2.60382 31.7474 2.10242C30.6925 1.65066 29.578 1.46698 28.4411 1.4645C22.3101 1.45705 16.1766 1.45705 10.0456 1.46946C9.43494 1.46946 8.81687 1.52903 8.2137 1.6308C6.57793 1.90633 5.1879 2.66091 4.04361 3.86726C2.73301 5.24985 2.00324 6.87072 2.00076 8.79442C1.99828 12.0486 2.00076 15.3027 2.00076 18.5569L2.00324 18.5594Z" fill="white"/>
<path d="M21.3149 17.2114L29.7718 7.37939H27.7686L20.4238 15.9157L14.5584 7.37939H7.79193L16.6608 20.2893L7.79193 30.6003H9.79506L17.5494 21.585L23.745 30.6003H30.5115L21.3125 17.2139L21.3149 17.2114ZM18.5696 20.401L17.6711 19.1152L10.5199 8.88609H13.5978L19.3689 17.1419L20.2674 18.4276L27.7686 29.1582H24.6907L18.5696 20.4035V20.401Z" fill="white"/>
</g>
<defs>
<clipPath id="clip0_3207_398">
<rect width="37.4464" height="37.3" fill="white" transform="translate(0.429688)"/>
</clipPath>
</defs>
</svg>
