<svg width="38" height="38" viewBox="0 0 38 38" fill="none" xmlns="http://www.w3.org/2000/svg">
<g clip-path="url(#clip0_3207_404)">
<path d="M37.9999 18.6438C37.9999 21.8185 37.995 24.9932 37.9999 28.168C38.0024 29.7491 37.6425 31.2459 36.8606 32.6111C35.6344 34.7532 33.8224 36.1904 31.442 36.873C30.2927 37.2032 29.1162 37.3049 27.9173 37.3C21.9451 37.2826 15.9704 37.3074 9.99828 37.2801C8.23095 37.2727 6.53313 36.8681 5.00658 35.9273C4.10802 35.3738 3.31124 34.7011 2.64601 33.8646C2.03291 33.0951 1.49924 32.2884 1.19641 31.3551C0.982939 30.6973 0.851382 30.0147 0.697486 29.3396C0.538626 28.657 0.583305 27.9595 0.583305 27.2644C0.583305 21.2526 0.575859 15.2382 0.583305 9.22632C0.585787 7.42425 1.02265 5.73139 2.00312 4.20236C3.27649 2.2166 5.06119 0.918413 7.34977 0.315239C8.17883 0.0968057 9.01781 0 9.87913 0C16.2484 0.012411 22.6178 -0.012411 28.9871 0.0223398C30.7172 0.0322686 32.3554 0.496439 33.8149 1.47939C34.4256 1.88895 35.0238 2.31092 35.5252 2.85701C36.6347 4.06336 37.4042 5.44594 37.7641 7.05688C37.9379 7.83629 38.0024 8.62067 37.9999 9.41745C37.99 12.4929 37.995 15.5683 37.995 18.6438H37.9999ZM36.4337 18.609C36.4337 15.335 36.4337 12.0585 36.4337 8.78449C36.4337 8.46677 36.4411 8.14409 36.3815 7.83629C36.2028 6.91788 35.8876 6.05159 35.416 5.22751C34.0805 2.88928 31.2856 1.5191 29.0541 1.55634C26.912 1.59357 24.7673 1.56378 22.6227 1.56378C20.4781 1.56378 18.336 1.55882 16.1914 1.56378C14.0318 1.56875 11.8723 1.534 9.71034 1.56378C9.35291 1.56875 8.9905 1.54641 8.64052 1.59853C7.00227 1.83683 5.56011 2.52191 4.38355 3.68358C2.90664 5.14311 2.14461 6.93774 2.13964 9.02278C2.12971 15.3747 2.13468 21.7242 2.13964 28.0761C2.13964 28.4907 2.18929 28.9052 2.24389 29.3172C2.4524 30.9083 3.16479 32.2636 4.2644 33.4079C5.7562 34.9593 7.60544 35.7287 9.75006 35.7337C16.0027 35.7486 22.2529 35.7387 28.5055 35.7436C29.0839 35.7436 29.6548 35.7238 30.2232 35.6121C31.1838 35.4234 32.0973 35.1082 32.9313 34.582C33.5742 34.1774 34.1277 33.6735 34.6217 33.0976C35.7759 31.7547 36.4287 30.2207 36.4312 28.4336C36.4337 25.1595 36.4312 21.883 36.4312 18.609H36.4337Z" fill="white"/>
<path d="M30.844 18.691C30.844 19.2669 30.839 19.8428 30.844 20.4162C30.8564 21.4289 30.7521 22.4367 30.5858 23.432C30.5089 23.8962 30.3575 24.3579 30.1713 24.7898C29.8312 25.5791 29.2231 26.1029 28.394 26.3412C28.0143 26.4504 27.6221 26.5447 27.2299 26.567C25.9441 26.6341 24.6608 26.7209 23.3701 26.7184C21.8063 26.7184 20.24 26.9021 18.6762 26.8078C16.9933 26.7036 15.3079 26.7408 13.625 26.6862C12.7165 26.6564 11.8105 26.5546 10.9045 26.4578C10.3683 26.4007 9.86444 26.2295 9.40027 25.9366C8.90879 25.6263 8.58859 25.1845 8.38009 24.6582C8.15421 24.0848 8.0152 23.4941 7.93577 22.876C7.68259 20.8828 7.69996 18.8822 7.72975 16.8815C7.74216 16.112 7.86379 15.345 7.91343 14.5755C7.95315 13.9773 8.09215 13.4064 8.26342 12.833C8.60597 11.6863 9.77756 10.8274 11.0236 10.7182C11.9743 10.6363 12.925 10.6512 13.8732 10.5916C17.0032 10.3906 20.1383 10.4899 23.2683 10.5172C24.4722 10.5271 25.6835 10.542 26.8849 10.7058C27.0214 10.7257 27.1629 10.7257 27.3019 10.7232C28.1334 10.7108 28.8483 11.0285 29.4986 11.515C29.8089 11.7458 30.0174 12.0685 30.1663 12.4136C30.4692 13.1086 30.6504 13.8408 30.7099 14.5954C30.7645 15.2855 30.8142 15.978 30.834 16.6705C30.8539 17.3432 30.839 18.0184 30.839 18.6935L30.844 18.691ZM17.0976 15.6379C16.971 15.8117 17.0281 16.0152 17.0281 16.2063C17.0231 17.3357 17.0256 18.4651 17.0256 19.597C17.0256 20.1133 17.0256 20.6271 17.0305 21.1434C17.0305 21.2775 17.0107 21.4289 17.2291 21.5083C17.8099 21.198 18.4206 20.8754 19.0287 20.5452C19.6368 20.2151 20.24 19.8701 20.8506 19.5424C21.4538 19.2197 22.0768 18.9318 22.6329 18.5272C22.5907 18.4627 22.5758 18.4155 22.546 18.4006C20.8804 17.5219 19.2149 16.6457 17.5493 15.772C17.4451 15.7174 17.3334 15.6727 17.2242 15.6305C17.1919 15.6181 17.1497 15.6354 17.1 15.6404L17.0976 15.6379Z" fill="white"/>
</g>
<defs>
<clipPath id="clip0_3207_404">
<rect width="37.4266" height="37.3024" fill="white" transform="translate(0.573242)"/>
</clipPath>
</defs>
</svg>
