<svg width="138" height="429" viewBox="0 0 138 429" fill="none" xmlns="http://www.w3.org/2000/svg">
<path d="M63.4637 231.784L0.521712 211.355L1.32779 203.574L67.118 196.424C83.1188 194.69 100.88 198.345 112.393 205.737L136.885 221.489L109.679 231.905C96.9029 236.797 78.766 236.743 63.4503 231.784H63.4637ZM53.7235 158.738L-9.07073 178.858L-12.5369 172.581L37.9645 130.192C50.2439 119.884 66.8493 112.626 80.2841 111.685L108.873 109.696L91.9589 132.813C84.0055 143.672 69.0123 153.846 53.737 158.738H53.7235ZM-61.6814 74.1478L-72.9667 139.089L-80.1408 139.25L-94.3011 74.8735C-97.7404 59.2161 -96.4775 41.1395 -91.0768 28.8152L-79.59 2.58057L-66.9478 28.2776C-61.0097 40.3466 -58.9407 58.3559 -61.6814 74.1478ZM-131.005 84.268L-110.799 147.489L-118.04 151.79L-163.92 103.81C-175.085 92.1437 -182.608 75.6262 -183.132 61.7428L-184.22 32.1751L-158.775 47.2815C-146.818 54.3778 -135.922 68.8928 -131.005 84.2545V84.268ZM-185.725 127.087L-137.696 173.562L-142.371 181.814L-206.965 164.598C-222.671 160.418 -237.301 149.613 -244.233 137.087L-258.985 110.408L-228.515 109.32C-214.193 108.809 -197.4 115.771 -185.725 127.074V127.087ZM3.12805 98.5411L-35.9135 150.768L-39.9573 148.484L-15.2642 88.1387C-9.25882 73.4623 0.562015 58.2887 9.77829 49.4856L29.3797 30.7236L23.3877 57.1732C20.5664 69.5917 12.6264 85.827 3.12805 98.5277V98.5411ZM-218.439 191.464L-153.508 209.931L-153.374 220.79L-217.848 240.802C-233.526 245.667 -251.609 243.355 -263.915 234.942L-290.127 216.986L-264.359 198.426C-252.254 189.717 -234.238 186.975 -218.452 191.464H-218.439ZM-210.552 265.007L-144.628 249.914L-139.106 259.537L-185.456 308.767C-196.728 320.742 -213.669 327.476 -228.622 325.943L-260.463 322.664L-247.203 293.553C-240.969 279.885 -226.594 268.676 -210.566 264.994L-210.552 265.007ZM-169.308 325.688L-118.699 280.006L-108.126 285.987L-121.251 352.877C-124.435 369.139 -135.788 383.452 -150.15 389.353L-180.727 401.905L-185.711 369.247C-188.049 353.912 -181.614 336.816 -169.321 325.701L-169.308 325.688ZM-103.302 356.627L-82.586 291.094L-69.487 290.583L-43.746 354.301C-37.4854 369.798 -39.8364 387.941 -49.6976 400.535L-70.723 427.347L-93.7637 402.255C-104.579 390.468 -108.327 372.553 -103.302 356.627ZM-27.6376 354.624L-43.1548 287.304L-31.7353 279.737L24.261 320.218C37.8839 330.056 45.2058 346.856 42.9354 362.997L38.0988 397.376L4.5387 388.452C-11.2203 384.259 -23.8625 370.98 -27.6242 354.611L-27.6376 354.624ZM30.9649 313.512L-12.2682 258.543L-4.89251 245.506L64.4982 254.242C81.3723 256.365 95.3714 268.273 100.168 284.589L110.365 319.318L75.3401 328.457C58.8825 332.744 41.4575 326.898 30.9515 313.525L30.9649 313.512ZM63.813 226.865L0.185842 208.681L0.709798 200.872L66.2044 191.41C82.1381 189.099 100.02 192.136 111.775 199.111L136.818 213.989L110.002 225.36C97.4001 230.695 79.2765 231.3 63.7996 226.878L63.813 226.865ZM51.4933 154.222L-10.5486 176.546L-14.2431 170.391L34.7267 126.254C46.6299 115.516 62.9801 107.68 76.3611 106.269L104.856 103.272L88.7615 126.966C81.1977 138.095 66.5806 148.793 51.4799 154.236L51.4933 154.222ZM-66.8269 73.758L-75.8014 139.049L-82.9621 139.465L-99.3929 75.6396C-103.383 60.1166 -102.765 42.0131 -97.8076 29.5006L-87.2478 2.87625L-73.7056 28.1163C-67.3509 39.9702 -64.6371 57.8856 -66.8135 73.7715L-66.8269 73.758ZM-135.747 86.3243L-113.311 148.793L-120.405 153.349L-167.951 107.022C-179.518 95.759 -187.633 79.5237 -188.64 65.6672L-190.776 36.1668L-164.807 50.3592C-152.608 57.0254 -141.202 71.1372 -135.747 86.3377V86.3243ZM-188.922 131.066L-139.267 175.82L-143.647 184.234L-208.819 169.315C-224.672 165.687 -239.666 155.405 -247.041 143.135L-262.733 116.994L-232.317 114.83C-218.036 113.822 -201 120.179 -188.922 131.066ZM-1.19794 95.8397L-38.3586 149.424L-42.4831 147.274L-19.9529 86.0958C-14.4715 71.2179 -5.18808 55.7083 3.70575 46.5826L22.6354 27.1486L17.5839 53.7998C15.2059 66.3123 7.84368 82.8165 -1.19794 95.8531V95.8397ZM-219.339 196.544L-153.79 212.713L-153.28 223.559L-217.001 245.842C-232.491 251.258 -250.642 249.592 -263.244 241.608L-290.073 224.593L-264.977 205.133C-253.194 195.993 -235.272 192.62 -219.339 196.544ZM-208.846 269.765L-143.499 252.347L-137.642 261.768L-182.218 312.611C-193.06 324.976 -209.746 332.3 -224.753 331.306L-256.688 329.155L-244.462 299.601C-238.725 285.718 -224.753 273.998 -208.86 269.765H-208.846ZM-165.479 328.94L-116.522 281.498L-105.748 287.102L-116.495 354.409C-119.102 370.779 -129.944 385.482 -144.077 391.879L-174.198 405.494L-180.338 373.037C-183.213 357.796 -177.395 340.485 -165.492 328.94H-165.479ZM-98.4121 357.527L-80.0334 291.309L-66.9613 290.341L-38.9766 353.105C-32.1786 368.373 -33.8714 386.584 -43.2892 399.527L-63.3608 427.065L-87.2747 402.806C-98.5062 391.409 -102.886 373.641 -98.4256 357.54L-98.4121 357.527ZM-22.8683 352.85L-40.7634 286.121L-29.626 278.151L27.7675 316.63C41.7262 325.984 49.6393 342.515 47.9465 358.723L44.3191 393.25L10.4635 385.522C-5.44335 381.893 -18.5288 369.072 -22.8817 352.85H-22.8683ZM34.243 309.695L-10.9113 256.298L-3.99238 243.006L65.6671 249.282C82.6083 250.801 97.0239 262.225 102.384 278.339L113.804 312.678L79.1287 323.04C62.8323 327.906 45.2193 322.677 34.2296 309.695H34.243ZM59.796 187.62L-6.37035 187.19L-7.95566 179.53L52.5816 152.811C67.3061 146.306 85.349 144.425 98.5554 147.986L126.674 155.58L103.902 173.737C93.2084 182.258 75.9044 187.714 59.8095 187.607L59.796 187.62ZM28.3989 120.959L-25.3537 159.128L-30.5664 154.196L4.72679 98.5142C13.3116 84.9803 26.9345 73.0323 39.4558 68.073L66.0969 57.5361L56.9747 84.6846C52.689 97.439 41.4844 111.672 28.4123 120.959H28.3989ZM-107.212 75.2498L-98.2912 140.554L-105.076 142.879L-138.072 85.8136C-146.092 71.9436 -150.365 54.324 -148.954 40.9513L-145.944 12.4723L-126.115 33.1428C-116.791 42.8464 -109.375 59.3774 -107.199 75.2633L-107.212 75.2498ZM-170.221 105.866L-131.811 160.015L-137.413 166.305L-195.68 134.452C-209.854 126.711 -222.026 113.244 -226.728 100.181L-236.723 72.3334L-207.892 79.0264C-194.35 82.1714 -179.572 92.7082 -170.221 105.866ZM-209.397 163.241L-149.545 193.01L-151.493 202.297L-218.277 205.428C-234.52 206.194 -251.73 200.321 -262.129 190.483L-284.269 169.53L-255.559 159.276C-242.07 154.464 -223.947 156.01 -209.397 163.254V163.241ZM-38.0496 78.892L-59.4378 140.487L-63.9922 139.533L-58.7392 74.551C-57.4629 58.7457 -52.6935 41.3142 -46.5807 30.1323L-33.5758 6.33029L-31.2785 33.3578C-30.2037 46.0585 -32.8503 63.9335 -38.0496 78.9055V78.892ZM-221.085 234.485L-153.602 232.442L-150.19 242.751L-205.568 281.336C-219.03 290.718 -236.965 293.983 -251.246 289.683L-281.663 280.503L-262.733 255.021C-253.839 243.046 -237.489 234.982 -221.085 234.485ZM-191.287 302.195L-133.02 267.856L-124.838 275.356L-154.099 336.305C-161.22 351.13 -175.326 362.674 -190.037 365.739L-221.367 372.244L-217.552 340.485C-215.752 325.567 -205.447 310.541 -191.287 302.182V302.195ZM-133.598 347.541L-99.2048 288.688L-87.315 291.188L-79.5631 358.898C-77.6823 375.362 -84.1578 392.444 -96.0611 402.403L-121.413 423.624L-136.056 394.003C-142.935 380.093 -141.981 361.855 -133.625 347.541H-133.598ZM-61.3187 357.057L-61.4261 288.339L-49.093 283.89L-5.25526 336.83C5.39854 349.705 8.66319 367.701 3.07432 382.7L-8.84234 414.619L-38.3989 397.672C-52.277 389.715 -61.2784 373.776 -61.3052 357.07L-61.3187 357.057ZM10.1948 332.26L-24.9776 272.802L-16.3927 262.131L49.2363 283.769C65.1968 289.024 77.2613 302.827 79.9886 318.887L85.779 353.119L51.0903 354.772C34.7939 355.551 18.7393 346.721 10.1813 332.26H10.1948ZM53.5891 275.342L-4.26109 236.031L-1.17109 221.368L67.6151 208.694C84.3414 205.616 101.296 212.74 110.795 226.824L131.041 256.836L100.423 276.135C86.0476 285.207 67.6554 284.898 53.5891 275.342ZM58.7078 182.312L-7.43169 184.449L-9.31257 176.855L50.1364 147.812C64.5923 140.742 82.5546 138.162 95.8819 141.213L124.27 147.718L102.223 166.735C91.8649 175.672 74.7893 181.788 58.7078 182.298V182.312ZM24.7312 116.927L-27.5033 157.152L-32.9041 152.421L0.199269 95.4231C8.24671 81.5666 21.4128 69.0944 33.7191 63.6647L59.9304 52.093L51.8695 79.5775C48.0809 92.4797 37.4271 107.143 24.7312 116.927ZM-112.532 76.5132L-101.086 141.428L-107.776 144.008L-142.962 88.2596C-151.52 74.6988 -156.464 57.2808 -155.577 43.8544L-153.683 15.2812L-133.061 35.1588C-123.374 44.4995 -115.313 60.7348 -112.532 76.5132ZM-174.319 109.548L-133.84 162.165L-139.187 168.67L-198.636 139.103C-213.092 131.912 -225.787 118.943 -230.987 106.054L-242.057 78.6098L-212.998 84.1873C-199.348 86.8081 -184.166 96.7536 -174.319 109.548ZM-211.238 168.401L-150.27 195.819L-151.869 205.173L-218.479 210.898C-234.681 212.296 -252.106 207.095 -262.881 197.66L-285.828 177.581L-257.534 166.224C-244.247 160.889 -226.083 161.735 -211.251 168.401H-211.238ZM-43.2892 77.4674L-62.2725 139.842L-66.8538 139.062L-64.1266 73.9327C-63.4682 58.0871 -59.3706 40.4809 -53.7011 29.0705L-41.6367 4.77127L-38.2914 31.6913C-36.7195 44.3382 -38.681 62.3073 -43.2892 77.4674ZM-220.158 240.036L-152.81 235.386L-148.994 245.546L-202.841 286.242C-215.94 296.134 -233.727 300.099 -248.156 296.349L-278.895 288.366L-260.96 262.171C-252.536 249.86 -236.522 241.178 -220.131 240.036H-220.158ZM-187.754 306.536L-130.871 269.966L-122.407 277.143L-149.276 339.168C-155.806 354.248 -169.455 366.344 -184.046 369.972L-215.107 377.687L-212.527 345.807C-211.305 330.835 -201.605 315.407 -187.767 306.523L-187.754 306.536ZM-128.345 349.624L-96.2626 289.481L-84.2788 291.51L-73.9071 358.871C-71.3813 375.254 -77.1986 392.565 -88.6988 402.981L-113.204 425.156L-128.976 396.126C-136.379 382.485 -136.151 364.233 -128.345 349.611V349.624ZM-55.7432 356.331L-58.5242 287.667L-46.3657 282.748L-0.512774 333.954C10.6381 346.399 14.6014 364.26 9.5902 379.461L-1.07703 411.811L-31.2785 396.019C-45.4656 388.6 -55.0715 373.037 -55.7432 356.331ZM14.7357 328.766L-22.7205 270.719L-14.5521 259.725L51.8695 278.81C68.0181 283.447 80.62 296.765 83.9652 312.719L91.0857 346.694L56.4911 349.692C40.235 351.103 23.8445 342.891 14.7357 328.779V328.766ZM55.8999 270.222L-3.42812 233.182L-0.915822 218.411L67.333 203.076C83.9249 199.34 101.135 205.805 111.184 219.513L132.572 248.718L102.734 269.187C88.7077 278.796 70.3289 279.213 55.8999 270.208V270.222ZM57.2031 176.304L-8.77517 181.384L-10.9919 173.885L47.1136 142.234C61.247 134.533 79.0615 131.16 92.5232 133.606L121.18 138.847L100.006 158.832C90.0512 168.213 73.2711 175.081 57.2166 176.318L57.2031 176.304ZM20.3515 112.478L-30.0425 154.988L-35.6448 150.5L-5.10747 92.0765C2.32197 77.8706 14.9104 64.834 26.9614 58.8532L52.6353 46.1257L45.797 73.9327C42.5861 86.9963 32.604 102.116 20.3515 112.451V112.478ZM-118.578 78.2066L-104.256 142.543L-110.826 145.419L-148.457 91.297C-157.606 78.1394 -163.329 60.9364 -163.034 47.4965L-162.402 18.8562L-140.92 37.8064C-130.83 46.7036 -122.057 62.5626 -118.564 78.2066H-118.578ZM-178.833 113.957L-136.056 164.719L-141.108 171.452L-201.82 144.559C-216.585 138.027 -229.845 125.622 -235.608 112.989L-247.888 86.0689L-218.6 90.3428C-204.843 92.3453 -189.231 101.619 -178.833 113.957ZM-213.105 174.396L-150.983 199.085L-152.151 208.493L-218.439 217.175C-234.56 219.285 -252.2 214.863 -263.391 205.926L-287.211 186.881L-259.455 174.275C-246.41 168.361 -228.233 168.401 -213.118 174.396H-213.105ZM-49.3617 76.0831L-65.5506 139.237L-70.1588 138.659L-70.3334 73.4623C-70.3737 57.6033 -67.0688 39.8358 -61.9232 28.1835L-50.947 3.37352L-46.4061 30.1188C-44.2699 42.6851 -45.4387 60.7214 -49.3617 76.0697V76.0831ZM-218.815 246.366L-151.735 238.719L-147.476 248.705L-199.455 291.752C-212.097 302.222 -229.697 306.98 -244.287 303.875L-275.348 297.263L-258.595 270.289C-250.722 257.615 -235.111 248.221 -218.801 246.366H-218.815ZM-183.481 311.361L-128.278 272.305L-119.505 279.105L-143.593 342.273C-149.451 357.635 -162.55 370.308 -176.952 374.582L-207.637 383.681L-206.468 351.721C-205.917 336.709 -196.903 320.863 -183.481 311.375V311.361ZM-122.219 351.748L-92.8367 290.234L-80.7857 291.739L-67.4181 358.575C-64.1669 374.824 -69.2049 392.377 -80.2349 403.303L-103.732 426.554L-120.795 398.25C-128.802 384.958 -129.379 366.706 -122.232 351.748H-122.219ZM-49.402 355.229L-55.2327 286.753L-43.316 281.296L4.76709 330.405C16.4688 342.353 21.2113 360.013 16.8853 375.415L7.66901 408.209L-23.2041 393.774C-37.7003 387.001 -47.9913 371.867 -49.4154 355.215L-49.402 355.229ZM19.8006 324.559L-20.2082 268.233L-12.5369 256.889L54.664 272.99C71.0007 276.901 84.1802 289.642 88.2375 305.434L96.8627 339.061L62.4293 343.59C46.2538 345.713 29.514 338.254 19.7872 324.559H19.8006ZM58.3182 264.241L-2.59517 229.875L-0.741163 215.011L66.7553 196.665C83.1726 192.203 100.651 197.888 111.305 211.14L133.97 239.364L105.071 261.15C91.4887 271.378 73.1502 272.601 58.3316 264.254L58.3182 264.241ZM55.5507 170.713L-10.159 178.535L-12.6981 171.143L44.0236 137.087C57.8211 128.808 75.4879 124.682 89.0436 126.577L117.888 130.609L97.5613 151.454C88.0091 161.238 71.5246 168.805 55.5372 170.713H55.5507ZM16.0658 108.487L-32.501 153.067L-38.2914 148.82L-10.2261 89.1735C-3.40125 74.6719 8.63632 61.1246 20.4321 54.6465L45.5551 40.8707L39.8857 68.9465C37.2256 82.131 27.875 97.6541 16.0658 108.5V108.487ZM-124.18 80.0479L-107.185 143.726L-113.634 146.871L-153.495 94.3613C-163.181 81.5935 -169.617 64.6458 -169.885 51.2059L-170.463 22.5791L-148.202 40.6153C-137.749 49.0825 -128.318 64.5652 -124.18 80.0479ZM-182.877 118.284L-138.018 167.219L-142.787 174.154L-204.574 149.814C-219.594 143.901 -233.365 132.06 -239.652 119.669L-253.047 93.2861L-223.611 96.337C-209.787 97.775 -193.799 106.377 -182.89 118.271L-182.877 118.284ZM-214.596 180.094L-151.493 202.162L-152.272 211.611L-218.143 223.048C-234.157 225.83 -251.972 222.147 -263.512 213.68L-288.098 195.644L-260.893 181.882C-248.116 175.417 -229.939 174.705 -214.596 180.067V180.094ZM-55.1118 75.0348L-68.6406 138.807L-73.2756 138.417L-76.1776 73.2876C-76.8762 57.4555 -74.3236 39.5536 -69.6617 27.6997L-59.7334 2.45961L-54.0773 28.9899C-51.4172 41.4486 -51.8203 59.5252 -55.1118 75.0348ZM-217.297 252.239L-150.593 241.796L-145.918 251.594L-196.056 296.779C-208.242 307.773 -225.626 313.256 -240.337 310.756L-271.654 305.448L-256.043 277.802C-248.707 264.819 -233.499 254.779 -217.283 252.239H-217.297ZM-179.29 315.702L-125.765 274.375L-116.71 280.799L-138.139 344.907C-143.352 360.497 -155.913 373.709 -170.127 378.587L-200.409 388.949L-200.584 356.976C-200.664 341.95 -192.321 325.755 -179.303 315.702H-179.29ZM-116.388 353.508L-89.5989 290.825L-77.4942 291.82L-61.3455 358.038C-57.4226 374.139 -61.7217 391.893 -72.2815 403.263L-94.7848 427.468L-113.002 399.903C-121.56 386.96 -122.89 368.749 -116.388 353.495V353.508ZM-43.4773 353.939L-52.1561 285.772L-40.4813 279.818L9.61706 326.884C21.8024 338.335 27.2838 355.78 23.6027 371.357L15.7568 404.513L-15.6807 391.382C-30.4455 385.213 -41.368 370.523 -43.4773 353.952V353.939ZM24.3685 320.406L-17.9511 265.8L-10.7635 254.148L57.0553 267.44C73.5533 270.665 87.2433 282.855 91.9589 298.459L101.981 331.696L67.7763 337.663C51.7083 340.458 34.673 333.698 24.3819 320.42L24.3685 320.406ZM60.3334 258.529L-1.96373 226.744L-0.727735 211.812L65.9357 190.658C82.1515 185.51 99.8586 190.47 111.05 203.264L134.883 230.507L106.912 253.476C93.7726 264.268 75.5013 266.257 60.3468 258.529H60.3334ZM53.5757 164.974L-11.7308 175.646L-14.579 168.361L40.6111 131.872C54.0325 123.002 71.4977 118.11 85.1206 119.413L114.113 122.182L94.7131 143.901C85.6043 154.101 69.4557 162.367 53.5757 164.974ZM11.4173 104.535L-35.1611 151.185L-41.1262 147.193L-15.6807 86.3915C-9.48723 71.6076 1.94579 57.5361 13.446 50.5608L37.9376 35.6964L33.5041 63.9872C31.4217 77.2793 22.7563 93.192 11.4308 104.535H11.4173ZM-129.944 82.2117L-110.194 145.097L-116.495 148.524L-158.6 97.8019C-168.837 85.4641 -175.998 68.8256 -176.858 55.3992L-178.672 26.8126L-155.644 43.8544C-144.829 51.8645 -134.74 66.9171 -129.93 82.1982L-129.944 82.2117ZM-186.907 122.975L-139.953 169.907L-144.413 177.043L-207.194 155.419C-222.469 150.164 -236.737 138.941 -243.562 126.832L-258.085 101.054L-228.542 102.815C-214.663 103.648 -198.313 111.551 -186.894 122.961L-186.907 122.975ZM-215.899 186.102L-151.896 205.401L-152.259 214.876L-217.565 229.176C-233.445 232.657 -251.394 229.754 -263.311 221.798L-288.662 204.85L-262.075 189.919C-249.581 182.903 -231.47 181.398 -215.899 186.088V186.102ZM-61.144 74.2015L-71.8784 138.511L-76.5269 138.323L-82.2635 73.3817C-83.6608 57.5899 -81.8739 39.6074 -77.736 27.5518L-68.9093 1.89514L-62.0979 28.1566C-58.9004 40.4944 -58.5242 58.5575 -61.1306 74.2015H-61.144ZM-215.456 258.301L-149.276 244.968L-144.185 254.551L-192.308 301.873C-204.01 313.377 -221.139 319.613 -235.944 317.772L-267.462 313.821L-253.074 285.516C-246.316 272.224 -231.551 261.526 -215.456 258.287V258.301ZM-174.722 320.043L-123.052 276.431L-113.728 282.452L-132.335 347.434C-136.863 363.239 -148.833 376.988 -162.819 382.471L-192.617 394.151L-194.189 362.204C-194.928 347.192 -187.283 330.647 -174.722 320.043ZM-110.221 355.081L-86.1999 291.295L-74.0549 291.766L-55.0446 357.218C-50.423 373.131 -53.943 391.059 -63.9922 402.873L-85.4207 428.032L-104.821 401.287C-113.929 388.721 -116.065 370.591 -110.221 355.081ZM-37.3779 352.339L-49.0258 284.616L-37.6197 278.165L14.4805 323C27.1495 333.9 33.3967 351.103 30.4007 366.827L24.0057 400.293L-7.98252 388.546C-23.0026 383.022 -34.5565 368.83 -37.3913 352.353L-37.3779 352.339ZM28.9497 315.89L-15.7075 263.179L-9.03043 251.218L59.2989 261.54C75.9178 264.053 90.1318 275.625 95.5192 291.013L106.979 323.78L73.0562 331.225C57.1225 334.72 39.805 328.712 28.9497 315.89ZM62.1874 252.495L-1.43978 223.451L-0.862071 208.479L64.8207 184.449C80.7946 178.602 98.6898 182.782 110.432 195.066L135.421 221.247L108.484 245.412C95.8282 256.755 77.6643 259.551 62.1874 252.481V252.495ZM51.6142 159.961L-13.2355 173.159L-16.3658 165.996L37.3734 127.396C50.4454 118.002 67.7092 112.451 81.3723 113.217L110.459 114.871L91.9186 137.315C83.2129 147.852 67.4001 156.749 51.6277 159.961H51.6142ZM7.15848 101.189L-37.5928 149.599L-43.7056 145.836L-20.6381 84.0933C-15.0358 69.0809 -4.15361 54.5793 7.07788 47.1606L30.9784 31.3687L27.6331 59.8075C26.0613 73.1667 18.0272 89.402 7.14506 101.175L7.15848 101.189ZM-134.955 84.3486L-112.787 146.427L-118.954 150.096L-162.993 101.041C-173.701 89.1063 -181.506 72.75 -182.877 59.3774L-185.806 30.8849L-162.147 47.0262C-151.036 54.6062 -140.369 69.2557 -134.968 84.3486H-134.955ZM-190.32 127.275L-141.592 172.366L-145.77 179.677L-209.343 160.499C-224.807 155.835 -239.491 145.177 -246.786 133.337L-262.303 108.137L-232.72 108.755C-218.815 109.051 -202.183 116.309 -190.333 127.275H-190.32ZM-216.84 191.491L-152.138 208.304V217.793L-216.84 234.606C-232.572 238.692 -250.628 236.488 -262.827 229.002L-288.81 213.049L-262.827 197.109C-250.615 189.623 -232.572 187.419 -216.84 191.505V191.491ZM-66.5314 73.6908L-74.7803 138.363H-79.4288L-87.6643 73.6908C-89.6661 57.9662 -88.5913 39.9299 -84.9102 27.7265L-77.0911 1.76074L-69.2721 27.7265C-65.6044 39.9299 -64.5162 57.9662 -66.5179 73.6908H-66.5314ZM-213.602 263.609L-147.987 247.723L-142.519 257.104L-188.775 306.254C-200.02 318.202 -216.894 325.097 -231.753 323.82L-263.405 321.092L-250.118 292.25C-243.871 278.702 -229.549 267.453 -213.589 263.596L-213.602 263.609ZM-170.503 323.739L-120.566 278.151L-111.014 283.809L-127.095 349.463C-131.005 365.43 -142.438 379.636 -156.209 385.657L-185.537 398.478L-188.331 366.626C-189.648 351.667 -182.662 334.827 -170.517 323.739H-170.503ZM-104.713 356.25L-83.1637 291.578H-71.0186L-49.4826 356.25C-44.243 371.975 -47.0644 390.011 -56.6568 402.214L-77.0911 428.194L-97.512 402.214C-107.104 390.011 -109.926 371.975 -104.686 356.25H-104.713ZM-32.0174 350.7L-46.2717 283.473L-35.1208 276.579L18.6721 319.371C31.7576 329.774 38.6497 346.721 36.2717 362.54L31.1799 396.22L-1.23826 385.71C-16.4599 380.778 -28.5512 367.029 -32.0174 350.686V350.7ZM32.8458 311.711L-13.8267 260.76L-7.61979 248.557L61.0589 256.231C77.7583 258.099 92.4023 269.106 98.3942 284.28L111.117 316.589L77.5165 325.339C61.7306 329.451 44.1982 324.116 32.8458 311.724V311.711ZM63.5981 247.092L-1.10391 220.521V205.536L63.5981 178.979C79.3302 172.527 97.3866 176.008 109.585 187.835L135.568 213.035L109.585 238.221C97.3732 250.049 79.3302 253.543 63.5981 247.078V247.092Z" stroke="#FF8038" stroke-width="0.75" stroke-miterlimit="10"/>
</svg>
