<svg width="237" height="713" viewBox="0 0 237 713" fill="none" xmlns="http://www.w3.org/2000/svg">
<path d="M610.603 398.273L502.178 363.083L503.567 349.678L616.898 337.361C644.461 334.375 675.056 340.672 694.89 353.405L737.102 380.539L690.238 398.481C668.229 406.909 636.986 406.816 610.603 398.273ZM593.824 272.444L485.654 307.102L479.683 296.29L566.678 223.27C587.83 205.513 616.435 193.011 639.578 191.39L688.826 187.964L659.689 227.784C645.988 246.491 620.161 264.017 593.848 272.444H593.824ZM395.027 126.728L375.587 238.596L363.228 238.874L338.836 127.978C332.911 101.006 335.086 69.8672 344.39 48.6372L364.177 3.44521L385.955 47.7111C396.184 68.5013 399.748 99.5245 395.027 126.728ZM275.609 144.161L310.416 253.066L297.942 260.475L218.909 177.823C199.677 157.728 186.717 129.274 185.815 105.359L183.94 54.4251L227.773 80.4475C248.37 92.6716 267.139 117.675 275.609 144.138V144.161ZM181.348 217.922L264.084 297.98L256.03 312.195L144.759 282.538C117.705 275.338 92.5023 256.724 80.5605 235.147L55.1496 189.191L107.638 187.315C132.285 186.436 161.237 198.428 181.348 217.899V217.922ZM506.668 168.748L439.415 258.715L432.449 254.779L474.985 150.828C485.33 125.547 502.248 99.4087 518.124 84.2444L551.889 51.9247L541.568 97.4871C536.708 118.879 523.03 146.846 506.668 168.725V168.748ZM124.995 328.818L236.845 360.629L237.076 379.335L126.013 413.808C99.0054 422.189 67.855 418.207 46.6561 403.714L1.50427 372.783L45.8924 340.811C66.7442 325.808 97.7788 321.086 124.972 328.818H124.995ZM138.58 455.504L252.142 429.505L261.654 446.081L181.834 530.886C162.417 551.514 133.234 563.113 107.476 560.473L52.627 554.824L75.4691 504.678C86.2074 481.133 110.97 461.824 138.58 455.481V455.504ZM209.629 560.034L296.808 481.341L315.022 491.644L292.411 606.869C286.926 634.883 267.37 659.539 242.63 669.703L189.957 691.326L181.371 635.068C177.344 608.652 188.43 579.203 209.605 560.057L209.629 560.034ZM323.33 613.329L359.016 500.441L381.581 499.561L425.922 609.323C436.707 636.017 432.657 667.272 415.67 688.965L379.451 735.152L339.761 691.928C321.131 671.624 314.651 640.763 323.33 613.329ZM453.671 609.879L426.941 493.912L446.612 480.878L543.072 550.611C566.539 567.558 579.152 596.497 575.241 624.302L566.886 683.524L509.075 668.152C481.928 660.928 460.151 638.055 453.671 609.856V609.879ZM554.62 539.058L480.146 444.368L492.852 421.911L612.408 436.959C641.476 440.617 665.591 461.13 673.853 489.236L691.418 549.06L631.084 564.803C602.734 572.188 572.718 562.117 554.62 539.081V539.058ZM611.205 389.8L501.6 358.475L502.502 345.024L615.324 328.726C642.772 324.744 673.575 329.976 693.848 341.991L736.987 367.62L690.793 387.207C669.085 396.398 637.865 397.44 611.205 389.823V389.8ZM589.983 264.665L483.109 303.12L476.744 292.516L561.1 216.487C581.605 197.988 609.77 184.491 632.82 182.06L681.906 176.897L654.181 217.714C641.152 236.883 615.972 255.312 589.983 264.688V264.665ZM386.163 126.056L370.703 238.527L358.345 239.245L330.041 129.297C323.168 102.557 324.232 71.3721 332.772 49.8179L350.962 3.95454L374.291 47.4333C385.26 67.853 389.912 98.7142 386.163 126.079V126.056ZM267.44 147.703L306.088 255.312L293.869 263.16L211.966 183.357C192.04 163.955 178.062 135.988 176.326 112.119L172.646 61.3011L217.381 85.7492C238.395 97.2325 258.044 121.542 267.44 147.726V147.703ZM175.84 224.775L261.376 301.87L253.832 316.363L141.565 290.664C114.257 284.413 88.4291 266.702 75.7236 245.565L48.6927 200.535L101.088 196.808C125.689 195.071 155.034 206.022 175.84 224.775ZM499.216 164.094L435.203 256.4L428.098 252.696L466.909 147.309C476.351 121.681 492.343 94.9636 507.663 79.2436L540.272 45.7664L531.57 91.6761C527.474 113.23 514.791 141.66 499.216 164.118V164.094ZM123.444 337.57L236.359 365.421L237.238 384.104L127.471 422.49C100.787 431.82 69.5213 428.949 47.8133 415.197L1.59684 385.887L44.8278 352.363C65.1473 336.62 95.9968 330.809 123.444 337.57ZM141.519 463.7L254.086 433.695L264.176 449.924L187.388 537.507C168.712 558.807 139.968 571.424 114.118 569.711L59.107 566.007L80.1671 515.096C90.0491 491.181 114.118 470.992 141.496 463.7H141.519ZM216.224 565.636L300.557 483.911L319.118 493.565L300.603 609.509C296.114 637.707 277.437 663.035 253.091 674.055L201.205 697.508L190.628 641.597C185.676 615.343 195.697 585.523 216.201 565.636H216.224ZM331.754 614.88L363.413 500.812L385.931 499.145L434.138 607.263C445.848 633.563 442.932 664.934 426.709 687.229L392.157 734.666L350.962 692.878C331.615 673.245 324.07 642.639 331.754 614.903V614.88ZM461.887 606.823L431.06 491.875L450.246 478.146L549.112 544.429C573.158 560.543 586.789 589.019 583.873 616.94L577.624 676.417L519.304 663.105C491.903 656.854 469.362 634.767 461.863 606.823H461.887ZM560.267 532.483L482.484 440.502L494.402 417.605L614.398 428.417C643.582 431.033 668.414 450.712 677.648 478.47L697.32 537.623L637.588 555.473C609.515 563.854 579.175 554.848 560.244 532.483H560.267ZM604.285 322.197L490.283 321.456L487.552 308.26L591.834 262.234C617.199 251.029 648.28 247.788 671.029 253.923L719.467 267.003L680.24 298.281C661.818 312.959 632.01 322.359 604.285 322.174V322.197ZM550.2 207.365L457.605 273.115L448.626 264.619L509.422 168.702C524.21 145.388 547.677 124.806 569.247 116.263L615.139 98.1122L599.425 144.879C592.042 166.849 572.718 191.367 550.2 207.365ZM316.595 128.626L331.939 241.12L320.252 245.125L263.413 146.823C249.596 122.931 242.237 92.579 244.667 69.5431L249.851 20.4848L284.01 56.092C300.048 72.8075 312.846 101.284 316.595 128.649V128.626ZM208.055 181.365L274.221 274.643L264.57 285.478L164.199 230.609C139.783 217.274 118.816 194.076 110.716 171.572L93.4974 123.602L143.162 135.132C166.49 140.549 191.947 158.7 208.055 181.365ZM140.57 280.2L243.672 331.481L240.316 347.478L125.273 352.873C97.2928 354.192 67.6468 344.075 49.7341 327.128L11.5946 291.035L61.051 273.37C84.2865 265.082 115.506 267.744 140.57 280.223V280.2ZM435.735 134.9L398.891 241.004L391.046 239.36L400.095 127.422C402.294 100.196 410.509 70.1682 421.039 50.906L443.442 9.90451L447.399 56.4624C449.251 78.3407 444.691 109.132 435.735 134.923V134.9ZM120.436 402.927L236.683 399.408L242.561 417.165L147.166 483.633C123.953 499.793 93.0808 505.419 68.4799 498.01L16.0843 482.198L48.6927 438.302C64.0133 417.674 92.1783 403.783 120.436 402.927ZM171.767 519.564L272.138 460.412L286.232 473.331L235.826 578.323C223.561 603.86 199.261 623.747 173.919 629.025L119.95 640.231L126.522 585.523C129.624 559.825 147.374 533.942 171.767 519.541V519.564ZM271.143 597.678L330.388 496.297L350.87 500.603L364.223 617.241C367.463 645.602 356.309 675.028 335.804 692.183L292.133 728.739L266.907 677.713C255.058 653.751 256.701 622.335 271.096 597.678H271.143ZM395.651 614.069L395.466 495.695L416.712 488.032L492.204 579.226C510.579 601.405 516.18 632.406 506.552 658.243L486.025 713.228L435.11 684.034C411.204 670.328 395.698 642.87 395.651 614.093V614.069ZM518.841 571.355L458.253 468.932L473.041 450.549L586.095 487.824C613.588 496.876 634.371 520.653 639.069 548.319L649.043 607.286L589.288 610.134C561.216 611.476 533.56 596.266 518.818 571.355H518.841ZM593.593 473.308L493.939 405.589L499.262 380.331L617.754 358.499C646.567 353.197 675.773 365.467 692.136 389.73L727.012 441.428L674.269 474.673C649.506 490.301 617.824 489.768 593.593 473.308ZM602.41 313.052L488.478 316.733L485.238 303.652L587.645 253.622C612.547 241.444 643.489 236.999 666.447 242.254L715.348 253.46L677.37 286.219C659.527 301.615 630.112 312.149 602.41 313.029V313.052ZM543.882 200.419L453.902 269.712L444.599 261.563L501.623 163.377C515.486 139.507 538.166 118.023 559.365 108.669L604.516 88.7358L590.631 136.081C584.104 158.306 565.752 183.565 543.882 200.419ZM307.431 130.802L327.148 242.625L315.623 247.07L255.012 151.037C240.27 127.677 231.753 97.6723 233.281 74.5439L236.544 25.3235L272.068 59.5648C288.754 75.6551 302.64 103.622 307.431 130.802ZM200.996 187.709L270.726 278.348L261.515 289.553L159.108 238.619C134.206 226.233 112.336 203.892 103.379 181.69L84.3097 134.414L134.368 144.022C157.881 148.536 184.033 165.669 200.996 187.709ZM137.4 289.09L242.422 336.319L239.691 352.433L124.949 362.295C97.0383 364.703 67.0219 355.744 48.4613 339.491L8.93315 304.903L57.6722 285.339C80.5605 276.148 111.85 277.607 137.4 289.09ZM426.709 132.446L394.008 239.893L386.117 238.55L390.815 126.357C391.949 99.0614 399.007 68.7328 408.774 49.0771L429.556 7.21892L435.318 53.5916C438.026 75.3773 434.647 106.331 426.709 132.446ZM122.033 412.488L238.048 404.478L244.621 421.98L151.864 492.083C129.3 509.123 98.6583 515.953 73.8028 509.494L20.8518 495.741L51.7476 450.619C66.2582 429.412 93.8446 414.456 122.056 412.488H122.033ZM177.853 527.042L275.841 464.047L290.421 476.41L244.135 583.255C232.887 609.231 209.374 630.067 184.241 636.318L130.734 649.607L135.178 594.691C137.284 568.901 153.993 542.323 177.83 527.019L177.853 527.042ZM280.191 601.267L335.457 497.663L356.1 501.159L373.967 617.195C378.317 645.417 368.297 675.236 348.486 693.179L306.273 731.379L279.104 681.371C266.352 657.872 266.745 626.432 280.191 601.243V601.267ZM405.256 612.819L400.488 494.538L421.41 486.064L500.396 574.272C519.605 595.71 526.432 626.479 517.8 652.663L499.424 708.389L447.399 681.186C422.96 668.406 406.413 641.597 405.256 612.819ZM526.664 565.335L462.141 465.343L476.212 446.405L590.631 479.281C618.448 487.268 640.157 510.211 645.919 537.692L658.185 596.22L598.592 601.382C570.589 603.813 542.355 589.668 526.664 565.358V565.335ZM597.573 464.487L495.374 400.681L499.702 375.237L617.245 348.821C645.826 342.385 675.473 353.521 692.784 377.136L729.627 427.444L678.227 462.704C654.065 479.257 622.406 479.975 597.55 464.464L597.573 464.487ZM599.818 302.703L486.163 311.455L482.345 298.536L582.438 244.014C606.784 230.748 637.472 224.937 660.661 229.15L710.025 238.18L673.552 272.606C656.403 288.766 627.497 300.596 599.842 302.726L599.818 302.703ZM536.337 192.756L449.528 265.985L439.878 258.252L492.481 157.612C505.28 133.141 526.964 110.684 547.724 100.381L591.95 78.4565L580.17 126.357C574.639 148.861 557.444 174.906 536.337 192.71V192.756ZM297.016 133.719L321.687 244.546L310.37 249.501L245.546 156.269C229.786 133.604 219.927 103.97 220.436 80.8179L221.524 31.4818L258.53 64.1256C275.91 79.452 291.022 106.771 297.039 133.719H297.016ZM193.22 195.303L266.907 282.746L258.206 294.345L153.623 248.019C128.189 236.767 105.347 215.398 95.4183 193.636L74.2656 147.263L124.717 154.625C148.416 158.075 175.308 174.05 193.22 195.303ZM134.183 299.416L241.196 341.945L239.182 358.151L124.995 373.107C97.2234 376.742 66.8368 369.125 47.5587 353.729L6.52629 320.924L54.3396 299.207C76.8114 289.021 108.124 289.09 134.16 299.416H134.183ZM416.249 130.061L388.361 238.851L380.423 237.855L380.123 125.547C380.053 98.228 385.746 67.6215 394.61 47.5491L413.518 4.81115L421.34 50.8829C425.02 72.5297 423.006 103.599 416.249 130.038V130.061ZM124.347 423.393L239.9 410.219L247.236 427.421L157.696 501.576C135.918 519.611 105.601 527.806 80.4679 522.458L26.9384 511.068L55.7976 464.603C69.3593 442.771 96.2514 426.588 124.347 423.393ZM185.213 535.354L280.307 468.075L295.419 479.79L253.924 588.603C243.834 615.065 221.27 636.897 196.46 644.259L143.602 659.933L145.615 604.878C146.564 579.018 162.093 551.722 185.213 535.377V535.354ZM290.745 604.925L341.358 498.96L362.141 501.553L385.168 616.686C390.768 644.676 382.09 674.912 363.089 693.734L322.612 733.787L293.221 685.029C279.428 662.132 278.433 630.692 290.745 604.925ZM416.179 610.921L406.135 492.963L426.663 483.564L509.492 568.16C529.649 588.742 537.818 619.163 530.366 645.695L514.49 702.185L461.331 677.32C436.36 665.651 418.609 639.582 416.179 610.898V610.921ZM535.388 558.089L466.469 461.06L479.683 441.52L595.444 469.256C623.609 475.993 646.289 497.941 653.279 525.144L668.136 583.069L608.821 590.871C580.957 594.529 552.121 581.68 535.365 558.089H535.388ZM601.739 454.184L496.786 394.986L499.98 369.38L616.25 337.778C644.531 330.092 674.639 339.885 692.969 362.712L732.011 411.331L682.23 448.859C658.833 466.478 627.243 468.585 601.716 454.207L601.739 454.184ZM596.972 293.072L483.78 306.546L479.406 293.813L577.115 235.147C600.883 220.885 631.316 213.778 654.667 217.042L704.355 223.988L669.34 259.896C652.885 276.75 624.489 289.785 596.949 293.072H596.972ZM528.955 185.88L445.293 262.674L435.318 255.358L483.664 152.611C495.421 127.631 516.157 104.294 536.476 93.1346L579.753 69.4042L569.987 117.768C565.405 140.48 549.297 167.22 528.955 185.903V185.88ZM287.366 136.891L316.642 246.584L305.533 252.001L236.868 161.548C220.182 139.554 209.096 110.359 208.633 87.2078L207.638 37.8948L245.986 68.9643C263.991 83.5498 280.238 110.221 287.366 136.891ZM186.254 202.758L263.528 287.053L255.313 298.999L148.878 257.071C123.005 246.885 99.2831 226.488 88.4522 205.142L65.3788 159.696L116.085 164.951C139.899 167.428 167.439 182.245 186.231 202.734L186.254 202.758ZM131.614 309.232L240.316 347.247L238.974 363.522L125.504 383.225C97.9177 388.017 67.2302 381.673 47.3273 367.088L4.97571 336.018L51.8401 312.311C73.8491 301.175 105.161 299.948 131.591 309.186L131.614 309.232ZM406.344 128.256L383.039 238.11L375.054 237.439L370.055 125.246C368.852 97.9733 373.249 67.1353 381.28 46.7156L398.382 3.23684L408.126 48.9382C412.708 70.3997 412.014 101.539 406.344 128.256ZM126.962 433.51L241.867 415.521L249.92 432.399L163.551 510.234C142.56 529.172 112.613 538.618 87.272 534.312L33.3258 525.167L60.2179 477.544C72.8539 455.18 99.0517 437.886 126.985 433.51H126.962ZM192.433 542.832L284.635 471.641L300.233 482.707L263.32 593.14C254.341 619.996 232.702 642.754 208.217 651.158L156.053 669.008L155.752 613.93C155.613 588.047 169.985 560.149 192.41 542.832H192.433ZM300.789 607.957L346.912 499.978L367.764 501.691L395.582 615.759C402.34 643.495 394.934 674.078 376.744 693.665L337.979 735.361L306.597 687.877C291.855 665.582 289.564 634.211 300.765 607.934L300.789 607.957ZM426.385 608.698L411.435 491.273L431.569 481.017L517.869 562.094C538.86 581.819 548.302 611.87 541.961 638.703L528.446 695.818L474.268 673.199C448.834 662.572 430.019 637.267 426.385 608.721V608.698ZM543.257 550.935L470.357 456.87L482.738 436.797L599.564 459.694C627.983 465.251 651.566 486.249 659.666 513.128L676.931 570.382L618.009 580.662C590.33 585.477 560.985 573.832 543.257 550.958V550.935ZM605.211 444.345L497.897 389.591L500.026 363.87L614.861 327.429C642.795 318.562 673.297 327.105 692.575 349.145L733.631 396.074L685.447 435.64C662.813 454.231 631.339 457.657 605.234 444.345H605.211ZM593.57 283.186L481.072 301.569L476.143 289.021L571.214 226.164C594.334 210.884 624.419 202.457 647.886 204.702L697.829 209.472L664.41 246.885C648.719 264.457 620.902 278.695 593.547 283.186H593.57ZM520.947 179.073L440.688 259.433L430.412 252.557L474.245 147.819C484.891 122.352 504.585 98.1122 524.419 86.0965L566.608 60.4908L558.971 109.225C555.384 132.122 540.457 159.533 520.947 179.073ZM277.437 140.619L311.458 248.945L300.603 254.849L228.074 167.474C210.439 146.221 198.103 117.56 196.622 94.4311L193.498 45.1876L233.142 74.5439C251.772 88.3422 269.152 114.272 277.437 140.595V140.619ZM179.311 210.838L260.196 291.683L252.512 303.976L144.366 266.726C118.052 257.673 93.4743 238.342 81.7177 217.482L56.7002 173.077L107.591 176.11C131.498 177.545 159.663 191.159 179.335 210.814L179.311 210.838ZM129.369 319.581L239.622 352.826L238.997 369.148L126.499 393.782C99.1443 399.778 68.2253 394.777 47.6976 381.071L4.02685 351.877L49.8267 326.156C71.3496 314.071 102.546 311.478 129.369 319.558V319.581ZM395.952 126.82L377.461 237.601L369.454 237.277L359.572 125.408C357.165 98.2048 360.243 67.2279 367.371 46.4609L382.553 2.26448L394.286 47.5028C399.794 68.756 400.442 99.8717 395.952 126.82ZM130.133 443.951L244.135 420.985L252.906 437.492L170.008 519.009C149.85 538.827 120.343 549.569 94.8397 546.397L40.5464 539.591L65.3325 490.833C76.9734 467.936 102.384 449.508 130.11 443.928L130.133 443.951ZM200.302 550.31L289.31 475.183L305.371 485.555L273.318 597.493C265.519 624.719 244.898 648.403 220.807 657.849L169.476 677.968L166.791 622.937C165.518 597.076 178.663 568.576 200.325 550.31H200.302ZM311.411 610.666L352.791 500.789L373.712 501.599L406.459 614.347C414.42 641.759 408.357 672.643 391.046 692.993L354.133 736.333L320.715 690.261C305.024 668.615 301.344 637.383 311.411 610.666ZM436.892 605.943L416.827 489.282L436.476 478.169L526.224 555.403C548.048 574.179 558.809 603.813 553.648 630.901L542.632 688.548L487.529 668.314C461.655 658.798 441.752 634.35 436.892 605.966V605.943ZM551.149 543.156L474.222 452.355L485.724 431.75L603.429 449.531C632.056 453.86 656.542 473.794 665.822 500.302L685.563 556.746L627.15 569.572C599.703 575.591 569.871 565.243 551.172 543.156H551.149ZM608.404 433.95L498.799 383.919L499.795 358.128L612.94 316.733C640.457 306.662 671.284 313.862 691.511 335.023L734.556 380.122L688.155 421.749C666.354 441.289 635.042 446.104 608.404 433.927V433.95ZM590.191 274.551L478.48 297.286L473.088 284.946L565.659 218.454C588.177 202.271 617.916 192.71 641.453 194.029L691.557 196.877L659.62 235.54C644.623 253.691 617.384 269.018 590.214 274.551H590.191ZM513.611 173.309L436.522 256.701L425.992 250.218L465.728 143.86C475.379 117.999 494.125 93.0189 513.472 80.2392L554.643 53.036L548.881 102.025C546.173 125.038 532.334 153.005 513.588 173.286L513.611 173.309ZM268.805 144.3L306.991 251.237L296.368 257.557L220.506 173.054C202.061 152.495 188.615 124.32 186.254 101.284L181.209 52.2025L221.964 80.0076C241.126 93.0652 259.478 118.3 268.782 144.3H268.805ZM173.433 218.246L257.372 295.92L250.175 308.514L140.663 275.477C114.025 267.443 88.73 249.084 76.1634 228.687L49.4333 185.278L100.394 186.343C124.347 186.852 152.998 199.354 173.41 218.246H173.433ZM127.749 328.865L239.205 357.827V374.172L127.749 403.135C100.649 410.173 69.5445 406.376 48.5307 393.481L3.77228 366L48.5307 338.542C69.5676 325.646 100.649 321.85 127.749 328.888V328.865ZM386.672 125.94L372.462 237.346H364.455L350.268 125.94C346.82 98.8531 348.671 67.7836 355.012 46.7619L368.482 2.03296L381.951 46.7619C388.269 67.7836 390.143 98.8531 386.695 125.94H386.672ZM133.326 453.096L246.356 425.731L255.752 441.891L176.071 526.556C156.701 547.138 127.633 559.015 102.014 556.815L47.4893 552.116L70.3776 502.432C81.1391 479.095 105.809 459.718 133.303 453.073L133.326 453.096ZM207.569 556.677L293.591 478.146L310.046 487.893L282.344 600.989C275.609 628.493 255.914 652.964 232.193 663.336L181.672 685.423L176.858 630.553C174.59 604.786 186.625 575.777 207.546 556.677H207.569ZM320.9 612.68L358.021 501.275H378.942L416.04 612.68C425.066 639.768 420.206 670.837 403.682 691.859L368.482 736.611L333.304 691.859C316.78 670.837 311.92 639.768 320.923 612.68H320.9ZM446.126 603.119L421.572 487.314L440.78 475.437L533.444 549.152C555.986 567.072 567.858 596.266 563.762 623.515L554.991 681.533L499.147 663.429C472.926 654.932 452.097 631.248 446.126 603.096V603.119ZM557.86 535.956L477.462 448.188L488.154 427.166L606.46 440.386C635.227 443.604 660.453 462.565 670.775 488.703L692.691 544.36L634.81 559.432C607.618 566.516 577.416 557.325 557.86 535.979V535.956ZM610.834 424.643L499.378 378.872V353.058L610.834 307.31C637.935 296.198 669.039 302.194 690.076 322.567L734.834 365.977L690.076 409.363C669.039 429.736 637.958 435.756 610.834 424.62V424.643Z" stroke="#F5EDE3" stroke-width="0.75" stroke-miterlimit="10"/>
</svg>
