<svg width="398" height="57" viewBox="0 0 398 57" fill="none" xmlns="http://www.w3.org/2000/svg">
<path d="M375.418 41.6916L377.229 40.9352C377.67 40.753 377.958 40.3223 377.963 39.8475L377.98 38.7764L376.909 38.7929C376.434 38.7984 376.003 39.0911 375.821 39.5272L375.064 41.3383L375.418 41.6916Z" fill="#171717"/>
<path d="M375.418 47.4117L377.229 46.6553C377.67 46.4731 377.958 46.0424 377.963 45.5676L377.98 44.4964L376.909 44.513C376.434 44.5185 376.003 44.8112 375.821 45.2473L375.064 47.0583L375.418 47.4117Z" fill="#171717"/>
<path d="M381.684 41.6916L383.495 40.9352C383.937 40.753 384.224 40.3223 384.23 39.8475L384.246 38.7764L383.175 38.7929C382.7 38.7984 382.27 39.0911 382.088 39.5272L381.331 41.3383L381.684 41.6916Z" fill="#171717"/>
<path d="M381.684 47.4117L383.495 46.6553C383.937 46.4731 384.224 46.0424 384.23 45.5676L384.246 44.4964L383.175 44.513C382.7 44.5185 382.27 44.8112 382.088 45.2473L381.331 47.0583L381.684 47.4117Z" fill="#171717"/>
<path d="M387.951 41.6916L389.762 40.9352C390.204 40.753 390.491 40.3223 390.496 39.8475L390.513 38.7764L389.442 38.7929C388.967 38.7984 388.536 39.0911 388.354 39.5272L387.598 41.3383L387.951 41.6916Z" fill="#171717"/>
<path d="M387.951 47.4117L389.762 46.6553C390.204 46.4731 390.491 46.0424 390.496 45.5676L390.513 44.4964L389.442 44.513C388.967 44.5185 388.536 44.8112 388.354 45.2473L387.598 47.0583L387.951 47.4117Z" fill="#171717"/>
<g style="mix-blend-mode:multiply">
<path d="M379.851 17.2652H389.453L390.513 15.3824V10.5071C390.513 9.71202 389.862 9.13228 388.923 9.13228H385.765L384.826 10.1924C384.511 10.5568 383.959 10.5292 383.622 10.2421L381.718 8.62432H381.281L380.415 9.61264L382.778 11.5893C383.092 11.8543 383.065 12.1911 382.778 12.5279L382.148 13.2512L382.435 13.4941L384.633 10.9598C384.848 10.6948 385.213 10.5016 385.743 10.5016H388.205C388.785 10.5016 389.072 10.7169 389.171 11.2249L389.773 14.6039C389.845 14.9904 389.795 15.2775 389.652 15.4487C389.337 15.8573 388.614 15.8849 387.797 15.8849H380.387L379.857 16.9726V17.2597L379.851 17.2652Z" fill="#989898"/>
<path d="M368.218 17.2652H377.974L378.891 15.3824V10.1703C378.891 9.54086 378.333 9.13228 377.61 9.13228H370.802C370.559 9.13228 370.344 8.98873 370.15 8.81757L369.935 8.62432H369.527L368.66 9.61264L369.769 10.5071H376.92C377.328 10.5071 377.499 10.6507 377.549 10.9875L378.107 14.5818C378.156 14.9463 378.085 15.2113 377.935 15.4045C377.621 15.791 376.92 15.8849 376.152 15.8849H368.787L368.229 17.0168V17.2597L368.218 17.2652Z" fill="#989898"/>
<path d="M365.336 17.5302H365.623L366.976 16.9008L366.059 12.4837C366.009 12.2187 366.203 11.9537 366.396 11.7384L367.528 10.4353L365.38 8.62432H364.944L364.077 9.61264L365.91 11.1586C366.153 11.3739 366.175 11.5948 365.96 11.8322L365.551 12.3126L365.336 17.5247V17.5302Z" fill="#989898"/>
<path d="M362.68 19.0762H362.945L361.929 12.4893C361.907 12.296 361.951 12.0531 362.216 11.7439L363.348 10.4409L361.2 8.62985H360.764L359.897 9.61817L361.73 11.1641C361.973 11.3574 361.995 11.6003 361.78 11.8377L361.344 12.3181L361.151 17.7732L362.669 19.0762H362.68Z" fill="#989898"/>
</g>
<g style="mix-blend-mode:multiply">
<path d="M297.848 23.8632L296.965 24.8902L298.494 26.1546C298.782 26.392 298.782 26.773 298.494 27.1098L297.611 28.1146L297.898 28.3521L300.311 25.608L298.285 23.8632H297.854H297.848ZM286.055 24.316H284.31L283.333 25.4368C283.024 25.7736 282.521 25.7957 282.162 25.4865L280.252 23.8632H279.705L278.894 24.7963L281.235 26.7785C281.544 27.0435 281.594 27.3969 281.307 27.7337L280.688 28.4514L280.975 28.6889L283.145 26.1601C283.338 25.9227 283.719 25.6853 284.266 25.6853H285.53C286.055 25.6853 286.248 25.9724 286.342 26.4969L286.916 29.887C286.988 30.2459 286.916 30.5054 286.822 30.6765C286.513 31.1293 285.795 31.179 285.177 31.179H278.877L278.353 32.2556V32.5207H286.729L287.634 30.6821V25.7405C287.634 24.9785 286.988 24.3325 286.06 24.3325L286.055 24.316ZM278.159 25.6245L276.061 23.8577H275.631L274.769 24.835L276.558 26.3644C276.796 26.5576 276.823 26.795 276.608 27.0325L276.177 27.5073L275.984 33.0452L277.513 34.3317H277.751L276.746 27.6729C276.724 27.4797 276.768 27.2202 277.033 26.911L278.154 25.6245H278.159ZM296.319 25.6024L294.243 23.8577H293.812L292.951 24.8626L294.525 26.1767C294.812 26.4141 294.812 26.795 294.525 27.1318L293.117 28.7551L291.372 27.419C291.135 27.2257 291.157 26.9441 291.3 26.773L292.305 25.63L290.207 23.8632H289.776L288.915 24.8405L290.704 26.3202C290.941 26.5355 290.919 26.795 290.726 27.038L290.323 27.5625L293.901 30.8532C294.022 30.9471 293.995 31.1624 293.735 31.1624H288.771L288.247 32.2391V32.5041H295.237L295.784 31.3833C295.927 31.0962 295.833 30.8367 295.518 30.5937L293.967 29.4011C293.68 29.1858 293.586 28.733 293.823 28.4459L296.308 25.608L296.319 25.6024ZM303.265 26.9386L304.386 25.6521L302.26 23.8632H301.829L300.968 24.8405L302.779 26.3699C303.016 26.5631 303.016 26.8006 302.829 27.038L302.426 27.5128L302.21 32.6697H302.497L303.834 32.0514L302.928 27.684C302.878 27.4907 302.978 27.2533 303.265 26.9441V26.9386Z" fill="#989898"/>
</g>
<g style="mix-blend-mode:multiply">
<path d="M351.207 47.4117H359.991L360.897 45.5731V40.6315C360.897 39.8696 360.251 39.2236 359.323 39.2236H357.821L356.844 40.3444C356.535 40.6812 356.032 40.7033 355.673 40.3941L353.785 38.7929H353.354L352.493 39.7702L354.735 41.6585C355.044 41.9235 355.094 42.3045 354.807 42.6358L354.188 43.3535L354.475 43.5909L356.623 41.1063C356.816 40.8689 357.219 40.6315 357.772 40.6315H358.749C359.251 40.6315 359.511 40.8248 359.583 41.2775L360.179 44.7891C360.251 45.1701 360.179 45.4351 360.035 45.6228C359.699 46.0038 359.008 46.0535 358.197 46.0535H351.726L351.201 47.1301V47.4172L351.207 47.4117Z" fill="#989898"/>
<path d="M348.579 47.627H348.888L350.224 47.0087L349.412 43.1658C349.269 42.4977 349.39 42.1388 350.102 41.4928C350.412 41.1836 350.771 40.8965 351.461 40.3941V39.8917C351.461 39.4168 351.267 39.2236 350.793 39.2236H344.874C344.565 39.2236 344.399 39.1297 344.156 38.9585L343.941 38.7929H343.532L342.671 39.7702L343.698 40.6315H349.429C349.788 40.6315 349.975 40.8248 349.975 41.0125C349.975 41.134 349.926 41.2278 349.832 41.3217L348.733 42.4204L348.567 47.627H348.579Z" fill="#989898"/>
<path d="M338.646 47.7706C341.059 47.1522 343.228 46.2412 344.614 44.3805C344.852 43.8339 345.067 43.0223 345.233 41.9456L344.995 41.7303C344.686 42.6854 343.874 43.9057 343.206 44.259C342.991 44.3805 342.731 44.4026 342.538 44.1873L341.036 42.564C340.871 42.3983 340.799 42.2769 340.799 42.1333C340.799 41.9898 340.871 41.8462 341.014 41.6806L341.92 40.6315L339.772 38.7929H339.341L338.48 39.7702L340.297 41.2996C340.534 41.4928 340.562 41.7303 340.346 41.9677L339.916 42.4425L341.633 45.1866C341.058 45.5234 340.009 45.9044 339.22 46.0479L338.48 47.5774L338.646 47.7706Z" fill="#989898"/>
<path d="M361.543 47.605C364.574 46.843 366.893 45.4572 367.749 43.7842V39.9855C367.749 39.5769 367.318 39.2236 366.771 39.2236H363.762C363.144 39.2236 362.928 39.1021 362.879 38.7929L362.663 37.6721C362.614 37.4788 362.713 37.2414 363 36.9322L364.121 35.6402L362.26 34.0666H361.852L360.968 35.0715L362.52 36.3635C362.641 36.4574 362.713 36.6009 362.713 36.7224C362.713 36.8163 362.663 36.9377 362.57 37.0316L362.161 37.5064V40.2781C362.398 40.5432 362.636 40.637 363.094 40.637H366.081C366.346 40.637 366.512 40.7585 366.556 40.9959L366.965 43.1216C367.036 43.4805 366.943 43.6462 366.771 43.8118C365.794 44.767 364.143 45.3412 362.117 45.9154L361.377 47.4448L361.543 47.6105V47.605Z" fill="#989898"/>
</g>
<path d="M277.911 42.1609C276.961 41.7799 276.531 41.1892 276.531 40.5929C276.531 39.9966 277.017 39.5659 277.723 39.5659C278.209 39.5659 278.778 39.7536 279.214 40.5156L280.164 39.9745C279.54 38.9751 278.701 38.5665 277.834 38.5665C276.453 38.5665 275.426 39.2953 275.426 40.6757C275.426 41.5701 275.967 42.437 277.563 43.1382C278.999 43.7621 279.352 44.248 279.352 45.1424C279.352 46.0369 278.673 46.6056 277.674 46.6056C276.994 46.6056 276.21 46.1749 275.669 45.1424L274.775 45.6007C275.233 46.8706 276.398 47.5773 277.646 47.5773C279.137 47.5773 280.462 46.7381 280.462 45.1424C280.462 43.6793 279.783 42.9229 277.916 42.1664L277.911 42.1609ZM293.122 47.4117H294.232V38.7763H293.122V47.4117ZM297.804 47.4117H302.326V46.4344H298.914V43.2928H302.111V42.3155H298.914V39.7426H302.326V38.7708H297.804V47.4062V47.4117ZM282.51 43.0002C282.51 45.6504 284.459 47.627 287.005 47.627C288.17 47.627 289.224 47.2461 289.953 46.5725V45.3026L289.843 45.2749C289.329 46.059 288.352 46.6553 286.999 46.6553C285.105 46.6553 283.614 45.0596 283.614 43.0002C283.614 40.9407 285.105 39.4555 286.999 39.4555C288.219 39.4555 289.274 40.0242 289.843 40.8082L289.953 40.7806V39.5328C289.224 38.8536 288.219 38.5058 287.005 38.5058C284.459 38.5058 282.51 40.4548 282.51 43.0002ZM331.104 39.7536V38.7819H326.582V47.4172H331.104V46.44H327.719V43.2983H330.888V42.321H327.719V39.7481H331.104V39.7536ZM315.97 43.0002C315.97 45.6504 317.946 47.627 320.492 47.627C321.657 47.627 322.683 47.2461 323.412 46.5725V45.3026L323.329 45.2749C322.788 46.059 321.839 46.6553 320.486 46.6553C318.565 46.6553 317.101 45.0596 317.101 43.0002C317.101 40.9407 318.565 39.4555 320.486 39.4555C321.706 39.4555 322.733 40.0242 323.329 40.8082L323.412 40.7806V39.5328C322.683 38.8536 321.706 38.5058 320.492 38.5058C317.946 38.5058 315.97 40.4548 315.97 43.0002ZM312.044 44.9768L306.142 38.699H305.871V47.4172H306.981V41.2168L312.883 47.5221H313.154V38.7763H312.044V44.9768Z" fill="#171717"/>
<path d="M352.256 17.3867H352.554V8.64089H351.416V14.8414L345.542 8.53599H345.271V17.2763H346.381V11.0813L352.256 17.3867Z" fill="#161616"/>
<path d="M341.456 17.3867H341.754V8.64089H340.617V14.8414L334.714 8.53599H334.444V17.2763H335.554V11.0813L341.456 17.3867Z" fill="#161616"/>
<path d="M328.293 8.53599H327.995L324.069 17.2818H325.207L326.399 14.7364H329.867L331.032 17.2818H332.197L328.299 8.53599H328.293ZM326.83 13.7868L328.128 10.728L329.397 13.7868H326.824H326.83Z" fill="#161616"/>
<path d="M312.375 17.2763H313.485V11.0813L316.925 14.7088L320.364 11.0813V17.2763H321.474V8.53599H321.231L316.925 13.1353L312.618 8.53599H312.375V17.2763Z" fill="#161616"/>
<path d="M303.028 17.2763H309.471V16.3045H304.949L309.929 8.64089H303.596V9.61817H308.063L303.028 17.2763Z" fill="#161616"/>
<path d="M300.217 8.64089H299.107V17.2763H300.217V8.64089Z" fill="#161616"/>
<path d="M291.03 17.2763H295.524V16.3045H292.112V13.1905H295.276V12.1911H292.112V9.61817H295.524V8.64089H291.03V17.2763Z" fill="#161616"/>
<path d="M279.888 17.3867H280.18L281.969 14.0573L283.786 17.3867H284.056L289.169 8.64089H287.844L283.891 15.5481L282.538 13.0027L284.918 8.64089H283.675L281.969 11.893L280.291 8.64089H279.021L281.4 13.0027L280.048 15.5481L276.094 8.64089H274.769L279.888 17.3867Z" fill="#161616"/>
<path d="M314.898 27.2147C313.954 26.8116 313.546 26.2153 313.546 25.6466C313.546 25.0779 314.004 24.5644 314.705 24.5644C315.191 24.5644 315.76 24.7798 316.19 25.5638L317.134 25.0227C316.511 23.9957 315.677 23.5927 314.81 23.5927C313.43 23.5927 312.375 24.3215 312.375 25.7294C312.375 26.5963 312.944 27.4576 314.539 28.1643C315.969 28.8158 316.295 29.3017 316.295 30.1631C316.295 31.0244 315.622 31.6483 314.644 31.6483C313.971 31.6483 313.159 31.2176 312.646 30.1631L311.751 30.6213C312.209 31.9188 313.374 32.6201 314.617 32.6201C316.102 32.6201 317.455 31.7808 317.455 30.1575C317.455 28.7275 316.754 27.9656 314.887 27.2091L314.898 27.2147ZM319.525 28.0981C319.525 30.7483 321.469 32.7194 324.014 32.7194C325.179 32.7194 326.228 32.3385 326.962 31.6649V30.395L326.852 30.3673C326.339 31.1514 325.367 31.7477 324.014 31.7477C322.12 31.7477 320.635 30.152 320.635 28.0981C320.635 26.0441 322.12 24.5589 324.014 24.5589C325.229 24.5589 326.283 25.1276 326.852 25.9116L326.962 25.884V24.6417C326.234 23.9681 325.234 23.6148 324.014 23.6148C321.474 23.6148 319.525 25.5583 319.525 28.1036V28.0981ZM336.183 27.6067H331.225V23.8522H330.115V32.4765H331.225V28.722H336.183V32.4765H337.293V23.8522H336.183V27.6067ZM379.161 23.5982C376.483 23.5982 374.451 25.5472 374.451 28.0926C374.451 30.6379 376.483 32.7194 379.161 32.7194C381.839 32.7194 383.843 30.7428 383.843 28.0926C383.843 25.4423 381.784 23.5982 379.161 23.5982ZM379.161 31.7422C377.157 31.7422 375.561 30.1465 375.561 28.087C375.561 26.0276 377.157 24.5423 379.161 24.5423C381.165 24.5423 382.678 26.1104 382.678 28.087C382.678 30.0637 381.138 31.7422 379.161 31.7422ZM390.612 24.8405V23.8687H386.118V32.5041H387.228V28.3907H390.259V27.4134H387.228V24.8405H390.612ZM356.408 23.6092C353.73 23.6092 351.704 25.5527 351.704 28.0926C351.704 30.7428 353.73 32.7139 356.402 32.7139C359.025 32.7139 361.079 30.7428 361.079 28.0926C361.079 25.5527 359.025 23.6037 356.402 23.6037L356.408 23.6092ZM356.408 31.7422C354.409 31.7422 352.813 30.1465 352.813 28.0926C352.813 26.0386 354.409 24.5534 356.408 24.5534C358.406 24.5534 359.919 26.1214 359.919 28.0926C359.919 30.0637 358.379 31.7422 356.408 31.7422ZM344.675 23.6037C341.997 23.6037 339.971 25.5472 339.971 28.087C339.971 30.7373 341.997 32.7084 344.675 32.7139C347.298 32.7139 349.351 30.7428 349.351 28.0926C349.351 25.5527 347.298 23.6037 344.675 23.6037ZM344.675 31.7422C342.676 31.7422 341.081 30.1465 341.081 28.0926C341.081 26.0386 342.676 24.5534 344.675 24.5534C346.674 24.5534 348.186 26.1214 348.186 28.0926C348.186 30.0637 346.646 31.7422 344.675 31.7422ZM364.684 23.8577H363.574V32.4986H368.069V31.5213H364.684V23.8522V23.8577Z" fill="#171717"/>
<path d="M45.1756 12.7764L43.6627 15.2941L43.9443 15.5646L46.5117 14.2285C46.7657 14.0904 46.9424 13.842 46.9755 13.5549L47.1467 12.2132L45.932 12.2739C45.6118 12.2905 45.3191 12.4837 45.1756 12.7764Z" fill="#161617"/>
<path d="M45.2639 10.3304C45.54 10.0433 45.6118 9.62369 45.4461 9.2648L45.1314 8.31513L43.9774 8.90591C43.6738 9.04395 43.4695 9.32554 43.4253 9.6513L42.7959 12.5334L43.2045 12.7322L45.2584 10.3304H45.2639Z" fill="#161617"/>
<path d="M57.1624 24.7245L55.5723 23.7252C55.1747 23.4767 54.6944 23.4105 54.2471 23.5485L51.9889 24.2497V24.6693L54.849 25.6521C55.3735 25.8343 55.9698 25.7239 56.3949 25.365L57.1569 24.7245H57.1624Z" fill="#161617"/>
<path d="M38.2849 20.0148C38.1138 20.2081 38.031 20.4676 38.0531 20.7216L38.1966 22.6209L38.6052 22.6485L39.8144 21.1026C40.0518 20.7989 40.0849 20.3903 39.9027 20.0535L39.4444 18.883L38.2905 20.0148H38.2849Z" fill="#161617"/>
<path d="M37.4512 15.0732C37.3187 15.3051 37.2966 15.5757 37.396 15.8242L38.2352 18.1265L38.6383 18.1155L39.4113 15.8738C39.5052 15.5978 39.4665 15.399 39.2401 15.0291L38.3843 13.726L37.4512 15.0677V15.0732Z" fill="#161617"/>
<path d="M37.8212 11.0427C38.1193 10.8936 38.2794 10.4188 38.3402 10.1096L38.6438 8.53046L37.3022 8.60776C36.9543 8.62985 36.6341 8.80653 36.4408 9.07708L34.9335 11.6831L35.3034 12.1304L37.8267 11.0372L37.8212 11.0427Z" fill="#161617"/>
<path d="M48.8804 10.3967C49.2264 10.2568 49.462 10.0028 49.5871 9.63473L50.0785 8.32617L48.4663 8.31513C48.146 8.31513 47.8424 8.46973 47.6657 8.73475L46.2191 10.9433L46.5669 11.3077L48.8859 10.3967H48.8804Z" fill="#161617"/>
<path d="M55.7931 12.5169C55.4232 12.5445 55.0974 12.7819 54.9649 13.1297L53.695 15.653L54.0263 15.9622L56.6931 14.5101C57.0299 14.3555 57.2507 14.0187 57.2563 13.6487L57.1127 12.5169H55.7876H55.7931Z" fill="#161617"/>
<path d="M57.4053 18.2591L57.7642 16.8566L56.2845 16.3928C55.9974 16.3045 55.6882 16.3708 55.4508 16.5695L52.9717 18.7063L53.1208 19.1259L56.5661 18.9658C56.9581 18.9492 57.3059 18.6566 57.4053 18.2535V18.2591Z" fill="#161617"/>
<path d="M49.3663 12.6991L53.1815 10.3304C53.4521 10.1317 53.6011 9.81141 53.5735 9.47461L53.4797 8.31513L51.7791 8.76236C51.492 8.83966 51.3043 9.05499 51.1331 9.32554L49.0295 12.434L49.3663 12.6991Z" fill="#161617"/>
<path d="M42.1057 10.9654C42.2879 10.7004 42.321 10.3691 42.2051 10.0709L41.3051 8.30962L39.991 9.25376C39.7923 9.40284 39.7481 9.89424 39.726 10.1869V10.2531L39.4555 13.3892L40.0242 13.5935L42.1057 10.9709V10.9654Z" fill="#161617"/>
<path d="M22.6651 12.1745L21.2351 11.4568L21.1688 13.0911C21.1412 13.4389 21.2682 13.8089 21.6933 14.2174L23.3277 15.8794L23.7473 15.6033L23.1344 12.7985C23.0626 12.5169 22.9908 12.3126 22.6651 12.169V12.1745Z" fill="#161617"/>
<path d="M36.7058 13.9966L36.5568 12.7156L34.9942 13.3395C34.5691 13.461 34.4863 13.9524 34.2599 14.4383L33.371 16.3542L33.7575 16.6192L36.2034 15.4708C36.6285 15.1892 36.8052 14.9739 36.7058 13.9966Z" fill="#161617"/>
<path d="M29.4398 14.7585L29.8207 14.6923L29.9588 13.058C30.0085 12.6659 29.8042 12.2795 29.4508 12.0917L28.6005 11.6445L28.2472 12.5831C28.1809 12.8205 28.2085 13.069 28.3245 13.2899L29.4453 14.7641L29.4398 14.7585Z" fill="#161617"/>
<path d="M21.489 10.1758L23.9736 11.6997L24.3491 11.4016L23.6313 9.27584C23.5209 8.95009 23.2393 8.70715 22.9025 8.64089L21.2295 8.31513L21.0529 9.1599C20.97 9.55743 21.1467 9.96601 21.4946 10.1758H21.489Z" fill="#161617"/>
<path d="M24.9951 13.7923L26.7509 15.41L27.0601 15.1064L26.5852 12.8978C26.5245 12.6052 26.3092 12.3678 26.0165 12.2739L24.8681 11.9206L24.6583 12.9696C24.5976 13.2843 24.7245 13.6046 24.9951 13.7868V13.7923Z" fill="#161617"/>
<path d="M30.4446 11.8654L30.8422 11.7715L31.1569 9.6016C31.1624 9.3421 31.0244 9.09364 30.7814 8.93904L29.7986 8.31513L29.0422 9.34762C28.8545 9.6016 28.849 9.9384 29.0367 10.1979L30.4502 11.8654H30.4446Z" fill="#161617"/>
<path d="M34.5691 10.3415C34.8286 10.2366 34.9887 10.0102 34.9997 9.74516L34.9169 8.31513L33.3433 8.40347C33.1059 8.45869 32.9182 8.61881 32.8409 8.83414L32.0127 11.1089L32.4102 11.4513L34.5636 10.3359L34.5691 10.3415Z" fill="#161617"/>
<path d="M32.7967 18.1321C32.6753 18.2094 32.5538 18.3032 32.471 18.3805L31.5268 19.2915L31.5931 19.6228L33.1446 19.7001C33.4869 19.6891 33.7022 19.4572 33.8955 19.159L34.3427 18.1707L33.3268 18.0216C33.1391 17.994 32.9513 18.0327 32.7912 18.1321H32.7967Z" fill="#161617"/>
<path d="M30.8422 15.4984L32.9789 14.3831C33.3323 14.223 33.5311 13.8696 33.4814 13.4886L33.3157 12.158L31.8802 12.7101C31.6317 12.804 31.444 12.9972 31.3667 13.2346L30.4778 15.2058L30.8367 15.5039L30.8422 15.4984Z" fill="#161617"/>
<path d="M25.2877 9.91632L27.2423 11.6942L27.6785 11.523L27.4521 9.30898C27.4134 8.95009 27.1208 8.65194 26.7122 8.5636L25.8288 8.30962L25.1166 8.95009C24.9288 9.27033 24.9951 9.65682 25.2822 9.91632H25.2877Z" fill="#161617"/>
<path d="M47.362 14.6315L46.0203 17.1217L46.3461 17.3812L48.7534 16.0671C49.0074 15.9015 49.1675 15.6309 49.1841 15.3438L49.2779 13.8917L48.0853 14.1125C47.7761 14.1678 47.5056 14.3665 47.3675 14.6315H47.362Z" fill="#161617"/>
<path d="M53.3085 13.4058L51.6631 13.7592C51.4147 13.7813 51.1717 13.9966 50.9343 14.4107L49.5374 16.829L49.8411 17.1658L52.403 16.0616C52.8447 15.8738 53.1208 15.4101 53.1484 14.8303L53.3085 13.4113V13.4058Z" fill="#161617"/>
<path d="M48.3945 21.5056L51.3374 20.175C51.6521 20.0314 51.8674 19.7333 51.9006 19.3909L52.0055 18.3032L50.3601 18.3971C50.0564 18.4137 49.7748 18.5793 49.6037 18.8333L48.0908 21.1522L48.3945 21.5056Z" fill="#161617"/>
<path d="M54.3134 22.3172L55.3293 21.1578L53.5238 20.4124C53.187 20.2743 52.795 20.324 52.5189 20.5394L50.1006 22.4221L50.2607 22.7976L53.6232 22.643C53.8938 22.632 54.1422 22.5105 54.3134 22.3172Z" fill="#161617"/>
<path d="M48.3393 24.2331C48.1571 24.3049 48.0025 24.4319 47.8921 24.5976L46.6718 26.7785L46.959 27.1319L49.9129 25.9668C50.3104 25.8067 50.5533 25.4147 50.5202 24.9896L50.4043 23.6092L48.3448 24.2276L48.3393 24.2331Z" fill="#161617"/>
<path d="M53.5514 12.1635L56.8422 10.6286C57.1679 10.4795 57.3722 10.1261 57.3722 9.7286L57.3612 8.30962L55.6937 8.49182C55.4894 8.55808 55.3072 8.70715 55.1968 8.92248L53.3195 11.8488L53.5625 12.1635H53.5514Z" fill="#161617"/>
<path d="M60.0832 11.3408C60.7016 11.0868 61.2647 10.8108 61.32 10.2255C61.3641 9.78381 61.3917 8.52495 61.3972 8.30962L59.774 8.51943C59.3544 8.53047 58.9955 8.80101 58.8685 9.19855L57.7808 11.8212L58.1341 12.1469L60.0832 11.3464V11.3408Z" fill="#161617"/>
<path d="M55.114 32.7305C54.8876 32.5151 54.5618 32.4213 54.2416 32.482L51.2601 33.0562L51.2104 33.4814L54.3299 34.812C54.6336 34.9445 54.9815 34.9169 55.263 34.7402L56.4557 33.9893L55.1195 32.736L55.114 32.7305Z" fill="#161617"/>
<path d="M42.9339 15.5039L42.9891 13.7813L41.5591 14.223C41.2444 14.3168 41.007 14.5598 40.9186 14.869L40.0849 17.8615L40.3941 18.0769L42.5474 16.3708C42.8235 16.172 42.9339 16.0284 42.9394 15.4984L42.9339 15.5039Z" fill="#161617"/>
<path d="M43.9333 19.4737C44.248 19.3026 44.4468 18.9768 44.4412 18.6179L44.5406 17.4088L43.1272 17.591C42.7296 17.6131 42.3928 17.8726 42.2658 18.2535L41.4708 20.313L41.8131 20.6001L43.9278 19.4682L43.9333 19.4737Z" fill="#161617"/>
<path d="M53.3306 31.6593C53.7281 31.7808 54.1588 31.6483 54.4072 31.3281L55.252 30.2348L53.579 29.4619C53.3472 29.3569 53.0766 29.3404 52.8337 29.4287L50.3712 30.2901V30.7373L53.3306 31.6593Z" fill="#161617"/>
<path d="M53.8386 37.9758L55.2631 37.7825L54.8214 36.7169C54.6005 36.1813 54.1312 35.7948 53.5625 35.6789L50.6031 35.0715L50.3877 35.4746L52.3699 37.4788C52.7509 37.8653 53.303 38.0531 53.8386 37.9813V37.9758Z" fill="#161617"/>
<path d="M53.441 41.6309L55.4397 41.4432L55.2851 40.1732C55.2354 39.7702 54.9318 39.4444 54.5287 39.3616L50.8018 38.5776L50.5644 38.9696L52.6183 41.3051C52.8226 41.537 53.1263 41.6585 53.441 41.6309Z" fill="#161617"/>
<path d="M44.0713 20.9645L44.2425 21.2571L46.8044 20.8099C47.1467 20.7492 47.4338 20.5062 47.5497 20.186L48.2289 18.3364L46.7602 18.2977C46.4565 18.2922 46.1694 18.4192 45.9762 18.6566L44.0658 20.9645H44.0713Z" fill="#161617"/>
<path d="M52.7729 28.1754L53.7557 26.5797L51.8674 26.3313C51.6134 26.2981 51.3539 26.3589 51.1497 26.5024L48.6651 27.9324L48.781 28.341L51.8343 28.6281C52.2098 28.6613 52.5797 28.4846 52.7729 28.1754Z" fill="#161617"/>
<path d="M46.313 24.1061C46.6719 24.1393 46.8651 23.9902 47.2129 23.6644L48.2123 22.5878L46.5228 22.0301C45.8768 21.8534 45.6062 21.9418 45.2805 22.1737L43.5413 23.416L43.6627 23.8632L46.3185 24.1061H46.313Z" fill="#161617"/>
<path d="M48.5381 34.4642C48.8914 34.536 49.2614 34.4145 49.4712 34.1439L50.2718 33.1391L49.2117 32.6256C48.9798 32.5152 48.7092 32.4931 48.4663 32.5759L46.1142 33.4372L46.1473 33.8292L48.5381 34.4642Z" fill="#161617"/>
<path d="M44.2314 28.3189L43.7014 30.5551L44.0161 30.8256L45.6946 29.2852C46.07 28.8324 46.2577 28.7054 46.2191 28.2969L46.1087 27.165C46.1087 27.165 45.2142 27.4687 44.9105 27.5956C44.5848 27.7337 44.3695 27.7834 44.2314 28.3134V28.3189Z" fill="#161617"/>
<path d="M48.1405 31.3446C48.5822 31.2397 48.8749 30.8256 48.8252 30.3784L48.7092 29.3459L47.2461 29.5447C47.0528 29.5723 46.8651 29.6606 46.7271 29.7987L44.8056 31.9133L45.0265 32.2943L48.1405 31.3446Z" fill="#161617"/>
<path d="M59.0893 21.7044L56.4667 22.7037V23.1565L59.3709 24.2608C59.7464 24.4043 60.177 24.2939 60.4421 23.9902L61.4028 22.8859L60.0169 21.8369C59.7519 21.6326 59.4041 21.5829 59.0893 21.7044Z" fill="#161617"/>
<path d="M43.0223 33.5476L41.78 34.7347L41.9732 35.182L43.867 35.0771C44.2866 35.055 44.7394 34.7734 44.8719 34.3758L45.275 33.3654L43.6903 33.2716C43.4419 33.2826 43.1989 33.382 43.0223 33.5532V33.5476Z" fill="#161617"/>
<path d="M48.4773 37.4567L49.9515 36.8825L49.0515 35.8832C48.8473 35.6568 48.5215 35.5243 48.1847 35.5298L45.54 35.585L45.4019 35.9549L47.3951 37.3298C47.7043 37.5396 48.1295 37.5893 48.4773 37.4567Z" fill="#161617"/>
<path d="M43.1824 36.1151L40.9462 36.0819L40.7861 36.369L42.5088 37.6169C42.7738 37.8267 43.1382 37.915 43.486 37.8488L44.8664 37.6003L44.1044 36.5623C43.9001 36.2862 43.5578 36.1206 43.1824 36.1095V36.1151Z" fill="#161617"/>
<path d="M8.84518 45.5234C8.68506 45.6394 8.56359 45.7995 8.49182 45.9872L7.93968 47.4945L10.7059 46.832C11.0372 46.7547 11.3077 46.5117 11.4181 46.186L12.3236 43.5689L11.7991 43.3756L8.84518 45.5234Z" fill="#161617"/>
<path d="M49.4712 39.6598C49.3718 39.3285 49.0957 39.08 48.7589 39.0027L45.7001 38.3181L45.4572 38.7101L47.478 41.2168C47.7099 41.5039 48.0743 41.6309 48.4332 41.5536L49.9515 41.2223L49.4712 39.6598Z" fill="#161617"/>
<path d="M43.0554 31.8747V31.0906L42.0174 31.179C41.5812 31.2287 41.3051 31.317 41.2002 31.9078L40.7916 33.8568L39.599 35.1543L34.8783 35.1323C34.3814 35.1323 34.1108 34.5415 34.4421 34.166L36.7555 31.5213L36.358 31.179L29.8815 38.2132L29.4839 37.8598L30.4226 36.7721C30.5164 36.6672 30.5716 36.496 30.5109 36.3746L29.8815 34.9832L32.8354 28.1202C33.0783 27.5515 33.636 27.1815 34.2544 27.1815H36.3083L37.2856 26.1325C38.1524 25.2712 38.5224 25.0669 39.4113 25.0724H41.0291L42.3983 26.1214C42.691 26.3423 42.967 26.3147 43.4088 26.2098L44.6179 25.8067L43.6462 24.9012C43.1879 24.4982 43.0388 24.5699 42.6965 24.5699L40.5818 24.5589H38.7377L39.6542 23.554L41.3383 23.3497C41.6751 23.3 41.8683 23.0792 42.0836 22.7534L42.818 21.5001H41.4928C41.0787 21.478 40.8413 21.5387 40.615 21.7761L37.7218 24.9399C37.4678 25.2049 36.9709 25.2822 36.6009 25.2767L32.7471 25.2601L31.5765 26.5024L31.19 26.1711L32.1231 25.0889C32.2943 24.9067 32.3716 24.6528 32.3219 24.4098L31.9741 20.9976C31.9741 20.9976 30.7815 20.313 30.7428 19.6063C30.6655 19.0596 30.8808 18.5075 31.317 18.1597L31.9023 17.6959C32.2777 17.4474 32.4047 17.2542 32.4434 16.5585L32.5152 15.4873L30.9195 16.1665C30.6931 16.2769 30.4336 16.6358 30.4281 16.8898L30.4115 18.2204L29.8925 19.1259L29.2576 18.386V17.7732L29.5612 16.5364C29.6496 16.1499 29.4011 15.8131 29.1361 15.6033L28.0208 14.7917L27.5404 15.8794C27.4631 16.172 27.5183 16.4977 27.695 16.7407L28.6337 17.8229L28.6116 23.289L25.9061 21.6823C25.5141 21.4393 25.227 21.0694 25.1663 20.6111V19.5621L25.1773 17.8726C25.1773 17.2486 25.2049 17.199 24.835 16.8511L24.189 16.3432L23.6424 17.2983C23.4988 17.5523 23.4215 17.856 23.5816 18.1321L24.6196 19.5842L24.3822 20.6664L21.9087 18.3916C21.6989 18.1818 21.3841 18.1045 21.0915 18.1928L19.8879 18.6842L20.3737 19.4848C20.6056 19.8658 20.7381 19.8878 21.1081 19.9817L23.035 20.197L26.7951 25.1552C27.2975 25.7626 27.419 26.4914 27.0822 27.1539L26.1435 29.0809L25.8454 29.644L20.0645 26.0552C19.6394 25.7902 19.5455 25.7239 19.1038 25.746L18.11 25.8343L18.502 26.8503C18.6676 27.2091 19.0321 27.5846 19.4296 27.5791L21.3289 27.5901L22.7258 28.4294V28.6668L20.6443 28.6613H18.8278C18.4413 28.6613 18.0934 28.8876 17.9388 29.241L17.2763 30.7318L18.5075 30.7759C18.756 30.787 18.9989 30.6986 19.1866 30.533L20.6664 29.2244L21.3676 29.2134C21.8645 29.2134 22.113 29.1692 22.3614 29.5667L23.6589 31.4164C24.1559 32.1507 24.2663 32.4765 24.1006 32.9458L23.3442 34.6077L21.9639 37.3574L21.8479 44.8553L19.9983 46.8596V47.4945H34.6574L35.2482 46.8761L33.0839 42.0891L34.4918 37.5506C34.6519 37.0482 35.1212 36.7058 35.6458 36.7114L38.9972 36.7224L42.6302 32.7636C43.0388 32.3053 43.0554 32.2446 43.0443 31.8747H43.0554Z" fill="#161617"/>
<path d="M15.515 31.179L12.9751 32.4986C12.6825 32.6532 12.4948 32.9513 12.4893 33.2826L12.4672 34.7899L14.4162 34.1439C14.6536 34.0666 14.8524 33.8844 14.9518 33.6581L15.918 31.4716L15.5094 31.179H15.515Z" fill="#161617"/>
<path d="M14.1733 35.9715L13.6432 36.0157L12.3402 39.4776C12.2242 39.7812 12.2574 40.1235 12.4396 40.3941L13.0856 41.8904L14.5046 39.9745C14.7861 39.6929 14.8745 39.2733 14.7309 38.9033L14.1678 35.966L14.1733 35.9715Z" fill="#161617"/>
<path d="M17.2321 32.2667L15.4653 34.6353C15.2444 34.8893 15.1671 35.2427 15.261 35.5684L15.5867 36.7003L17.2818 35.6347C17.5744 35.4525 17.7511 35.1267 17.7511 34.7789L17.7014 32.3053L17.2321 32.2612V32.2667Z" fill="#161617"/>
<path d="M49.438 42.4701L49.0295 42.6689L49.3718 45.7553C49.4049 46.0314 49.5595 46.2688 49.808 46.4068L51.746 47.489L52.0993 45.5069C52.149 45.2197 52.0552 44.9326 51.8453 44.7339L49.438 42.4646V42.4701Z" fill="#161617"/>
<path d="M59.6691 29.0533L55.771 28.9594L55.6219 29.3956L58.7304 31.4164C59.0783 31.6759 59.5586 31.6759 59.901 31.4109L61.3973 30.4557L60.3427 29.3514C60.166 29.1637 59.9286 29.0588 59.6691 29.0533Z" fill="#161617"/>
<path d="M59.2053 17.9885L56.8311 20.4234L57.0299 20.8651L60.5249 20.4676C61.0163 20.4124 61.3917 19.9762 61.3917 19.4627V17.9719L60.0611 17.718C59.7519 17.6572 59.4317 17.7621 59.2053 17.994V17.9885Z" fill="#161617"/>
<path d="M58.5427 25.7239C58.5096 25.7405 58.4765 25.757 58.4378 25.7681L55.4342 27.0987L55.5005 27.5404L59.2936 27.96C59.3709 27.9711 59.4372 27.9766 59.5034 27.9877C59.9065 28.0484 60.1273 28.0815 60.7678 27.4079L61.3972 26.795L60.2433 26.0055C59.2715 25.3926 59.0728 25.481 58.5427 25.7184V25.7239Z" fill="#161617"/>
<path d="M59.4096 13.4555L57.3501 15.2444L57.4826 15.6751L59.1942 15.8849C59.2826 15.8849 59.3764 15.8959 59.4703 15.907C60.0059 15.9511 60.558 15.9953 60.8782 15.6364C60.9555 15.5536 61.0108 15.4432 61.0494 15.3051L61.3917 13.9358L60.4862 13.3948C60.1439 13.1905 59.7188 13.2181 59.404 13.461L59.4096 13.4555Z" fill="#161617"/>
<path d="M60.9776 44.8222L57.3225 42.4977L56.9691 42.7683L58.2501 46.3351C58.344 46.6442 58.5979 46.8817 58.9127 46.959L61.3973 47.5001L61.4083 45.4903C61.3752 45.2142 61.2206 44.9713 60.9832 44.8222H60.9776Z" fill="#161617"/>
<path d="M56.0968 45.1369L52.8778 42.5143L52.4969 42.8014L53.8054 46.6553C53.9379 46.9645 54.2306 47.1853 54.5618 47.2295L56.5495 47.4945L56.4501 45.8271C56.4336 45.5565 56.3066 45.3081 56.0968 45.1369Z" fill="#161617"/>
<path d="M60.293 40.0794L56.6213 38.9309L56.3673 39.323L58.9734 42.2769C59.1777 42.5088 59.4869 42.6302 59.8016 42.5971L61.4028 42.4259L60.939 40.7475C60.8506 40.4328 60.6132 40.1843 60.2985 40.0849L60.293 40.0794Z" fill="#161617"/>
<path d="M59.7629 32.4655L56.8532 32.482L56.682 32.9072L59.0617 34.8838C59.255 35.0439 59.4979 35.1212 59.7464 35.0991L61.3973 34.685L60.3924 32.7802C60.2323 32.6035 60.0059 32.4931 59.7629 32.471V32.4655Z" fill="#161617"/>
<path d="M60.7623 37.269C60.6077 36.8384 60.5525 36.6893 60.2433 36.5568L56.2348 35.7727L56.025 36.1813L58.6476 38.5334C58.7857 38.6659 58.9623 38.7543 59.1556 38.7874L61.4028 38.953L60.8341 37.4457C60.812 37.3795 60.7899 37.3187 60.7678 37.2635L60.7623 37.269Z" fill="#161617"/>
<path d="M14.0739 10.7887L17.0885 12.3347L17.3812 11.9979L15.6364 8.86175C15.4376 8.55807 15.272 8.54151 14.7806 8.4863C14.7199 8.48077 14.6536 8.46973 14.5818 8.46421L13.0414 8.32066L13.6211 10.347C13.715 10.5402 13.8806 10.7004 14.0794 10.7942L14.0739 10.7887Z" fill="#161617"/>
<path d="M16.1168 16.0892L14.5818 16.6303L15.664 17.994C15.8628 18.2425 16.172 18.3805 16.4867 18.3584L18.9382 18.1818L19.0652 17.7401L17.0057 16.2217C16.7462 16.034 16.4149 15.9843 16.1113 16.0892H16.1168Z" fill="#161617"/>
<path d="M7.93968 42.564L8.02802 44.1652L10.3359 43.0057C10.601 42.8732 10.7942 42.6247 10.8605 42.3376L11.4016 39.9745L10.9488 39.6487L8.32065 41.7303C8.06667 41.9345 7.92312 42.2437 7.9452 42.5695L7.93968 42.564Z" fill="#161617"/>
<path d="M18.8002 23.3884L16.5585 21.9473C16.2935 21.7982 15.9732 21.8038 15.7082 21.9639L14.2727 22.8197L15.5205 23.8246C15.7027 23.9736 15.9291 24.0399 16.161 24.0068L18.7615 23.7694L18.8002 23.3829V23.3884Z" fill="#161617"/>
<path d="M19.1811 19.9928L16.4425 19.0044C16.1223 18.8664 15.9401 18.9327 15.4708 19.1204L14.4604 19.5952L15.3162 20.5725C15.5205 20.8762 15.8904 21.0363 16.2548 20.9866L19.1204 20.451L19.1811 19.9872V19.9928Z" fill="#161617"/>
<path d="M20.8486 23.9074L19.6615 23.9184L19.9872 24.8791C20.059 25.0945 20.1805 25.1883 20.4234 25.3595L22.1626 26.4527L22.3725 26.2043L21.5829 24.3491C21.4393 24.0785 21.1578 23.9074 20.8541 23.9074H20.8486Z" fill="#161617"/>
<path d="M17.7677 10.5734L19.5952 12.5445L19.9707 12.3126L19.5234 9.10469C19.4296 8.65746 19.0376 8.3317 18.5903 8.32618L17.4861 8.30962L17.4971 9.90528C17.4971 10.1537 17.5965 10.3912 17.7677 10.5789V10.5734Z" fill="#161617"/>
<path d="M13.5991 28.5564L12.6107 29.9809L14.1898 30.5054C14.5266 30.6158 14.8966 30.544 15.1671 30.3066L17.2928 28.4404L17.1106 27.9159L14.3389 28.1257C14.0408 28.1478 13.7647 28.3079 13.5935 28.5508L13.5991 28.5564Z" fill="#161617"/>
<path d="M22.6596 21.1854L20.843 20.8596C20.451 20.7878 20.059 20.9645 19.8492 21.3013L19.2253 22.3172L20.5394 22.6651C20.7989 22.7313 21.0749 22.6872 21.3013 22.5436L22.8307 21.5719L22.654 21.1854H22.6596Z" fill="#161617"/>
<path d="M17.4861 25.0613L14.9131 24.7632C14.6039 24.7245 14.2892 24.8515 14.0849 25.089L12.9917 26.3478L14.5874 27.0601C14.891 27.1926 15.2389 27.1595 15.5094 26.9717L17.475 25.6135L17.4861 25.0558V25.0613Z" fill="#161617"/>
<path d="M14.7806 12.6328L13.3727 12.9917L13.6267 13.9911C13.715 14.3444 14.0021 14.6315 14.3555 14.7199L17.4805 15.3769L17.6793 15.0015L15.7082 12.9144C15.4653 12.6549 15.1064 12.55 14.7751 12.6328H14.7806Z" fill="#161617"/>
<path d="M9.94945 30.7042L12.3071 27.8275L11.9261 27.5073L9.25928 28.1699C8.96113 28.2472 8.71819 28.468 8.62433 28.7662L7.92864 30.7207L9.01635 30.9968C9.35315 31.0906 9.71756 30.9747 9.93841 30.7042H9.94945Z" fill="#161617"/>
<path d="M10.5016 34.4255L11.6721 31.7753L11.2635 31.3998L8.58016 32.9182C8.282 33.0894 8.08876 33.3986 8.07219 33.7409L7.93968 35.4912L9.85006 34.9887C10.1427 34.9114 10.3801 34.7016 10.5016 34.4255Z" fill="#161617"/>
<path d="M10.4077 26.7564L13.2126 24.0565L12.9199 23.5816L9.64577 24.2221C9.39179 24.2718 9.16542 24.4209 9.01634 24.6362L7.93416 26.1987L9.23167 26.911C9.61264 27.1208 10.093 27.0601 10.4077 26.7564Z" fill="#161617"/>
<path d="M10.2862 38.8978L11.9592 35.9991L11.5506 35.6181L8.7734 36.7721C8.44765 36.9046 8.22127 37.2028 8.16606 37.5506L7.93968 39.0966L9.20959 39.3726C9.63473 39.4665 10.0709 39.2733 10.2918 38.8978H10.2862Z" fill="#161617"/>
<path d="M9.13232 11.1421L12.5666 11.8046L12.7598 11.4071L10.3139 8.5912C10.0213 8.29305 9.55746 8.22127 9.19306 8.42556L7.93971 9.11572L8.35381 10.474C8.46424 10.8329 8.76791 11.0924 9.13232 11.1421Z" fill="#161617"/>
<path d="M18.7891 13.7868L18.9768 15.5702C19.0155 15.9456 19.275 16.2659 19.6284 16.3818L22.0964 17.464L22.3669 17.1106L20.324 14.2064C20.1363 13.9248 19.8271 13.7592 19.4903 13.7647L18.7891 13.7813V13.7868Z" fill="#161617"/>
<path d="M9.6789 15.8241L13.3285 15.9014L13.4776 15.4708L10.6838 13.3395C10.3635 13.0966 9.92736 13.0856 9.59056 13.3119L7.93416 14.4272L9.0329 15.5426C9.20407 15.7137 9.43044 15.8131 9.67338 15.8186L9.6789 15.8241Z" fill="#161617"/>
<path d="M10.9543 19.6836L14.0297 18.4799V18.0382L10.4464 16.7904C10.1261 16.68 9.76172 16.7462 9.50222 16.9671L7.93968 18.2922L10.0985 19.6118C10.3525 19.7664 10.6727 19.7995 10.9543 19.6891V19.6836Z" fill="#161617"/>
<path d="M10.4961 22.8362L13.2678 21.3565L13.2181 20.7989L9.65682 20.5173C9.29793 20.4897 8.95008 20.6553 8.74579 20.9535L7.93416 22.1516L9.62921 22.8749C9.90528 22.9908 10.2255 22.9798 10.4905 22.8362H10.4961Z" fill="#161617"/>
<path d="M69.3369 55.5115H0V0.298149H69.3369V55.5115ZM0.78403 54.7275H68.5529V1.08218H0.78403V54.7275Z" fill="#161617"/>
<path d="M210.457 18.4965H210.777V9.14333H209.562V15.7745L203.279 9.02738H202.992V18.3805H204.179V11.7494L210.462 18.4965H210.457ZM198.906 18.4965H199.226V9.14333H198.012V15.7745L191.701 9.02738H191.414V18.3805H192.601V11.7494L198.912 18.4965H198.906ZM198.095 32.8851H202.931V31.8415H199.315V28.4846H202.699V27.441H199.315V24.6638H202.931V23.6203H198.095V32.8851ZM183.767 14.6426L185.158 11.3739L186.516 14.6426H183.767ZM180.813 18.3805H182.027L183.303 15.6585H187.008L188.25 18.3805H189.492L185.324 9.02738H185.003L180.807 18.3805H180.813ZM209.502 46.8044H214.338V45.7608H210.722V42.4039H214.106V41.3603H210.722V38.6107H214.338V37.5672H209.502V46.8044ZM191.784 32.8851H192.998V24.6638H195.836V23.6203H188.973V24.6638H191.784V32.8851ZM168.975 18.3805H170.162V11.7494L173.839 15.6309L177.516 11.7494V18.3805H178.704V9.02738H178.444L173.839 13.9469L169.234 9.02738H168.975V18.3805ZM202.986 47.0363C204.229 47.0363 205.333 46.6332 206.111 45.9099V44.5517L206.023 44.524C205.443 45.3633 204.433 45.9982 202.981 45.9982C200.927 45.9982 199.364 44.2922 199.364 42.0891C199.364 39.8861 200.927 38.296 202.981 38.296C204.284 38.296 205.383 38.9033 206.023 39.7426L206.111 39.715V38.3843C205.327 37.661 204.289 37.2856 202.986 37.2856C200.264 37.2856 198.15 39.3671 198.15 42.0891C198.15 44.8112 200.264 47.0418 202.986 47.0418V47.0363ZM182.696 33.001C184.722 33.001 186.721 31.9299 186.721 28.8876V23.6203H185.506V29.2631C185.506 31.0299 184.148 31.9575 182.696 31.9575C181.243 31.9575 179.885 31.0299 179.885 29.2631V23.6203H178.67V28.8876C178.67 31.9299 180.669 33.001 182.696 33.001ZM194.853 46.9203H195.141V37.5672H193.954V44.1983L187.643 37.4843H187.356V46.8044H188.543V40.1732L194.853 46.9203ZM159.075 18.3805H165.966V17.337H161.129L166.457 9.14333H159.683V10.1869H164.459L159.075 18.3805ZM172.42 32.8851H173.607V24.6638H176.445V23.6203H169.582V24.6638H172.42V32.8851ZM155.453 18.3805H156.64V9.14333H155.453V18.3805ZM178.731 46.8044H183.568V45.7608H179.918V42.4039H183.336V41.3603H179.918V38.6107H183.568V37.5672H178.731V46.8044ZM165.585 32.8851H166.772V23.6203H165.585V32.8851ZM147.409 18.3805H152.212V17.337H148.563V14.0076H151.947V12.9365H148.563V10.1869H152.212V9.14333H147.409V18.3805ZM173.723 46.8044H174.91V37.5672H173.723V46.8044ZM158.694 32.8851H159.881V24.6638H162.747V23.6203H155.856V24.6638H158.694V32.8851ZM135.886 18.4965H136.206L138.116 14.9352L140.054 18.4965H140.341L145.813 9.14333H144.394L140.17 16.5254L138.724 13.8033L141.269 9.14333H139.938L138.116 12.6163L136.322 9.14333H134.964L137.509 13.8033L136.062 16.5254L131.838 9.14333H130.419L135.891 18.4965H135.886ZM167.181 47.0363C168.423 47.0363 169.555 46.6332 170.333 45.9099V44.5517L170.217 44.524C169.665 45.3633 168.627 45.9982 167.175 45.9982C165.149 45.9982 163.559 44.2922 163.559 42.0891C163.559 39.8861 165.149 38.296 167.175 38.296C168.478 38.296 169.604 38.9033 170.217 39.7426L170.333 39.715V38.3843C169.549 37.661 168.478 37.2856 167.181 37.2856C164.459 37.2856 162.377 39.3671 162.377 42.0891C162.377 44.8112 164.459 47.0418 167.181 47.0418V47.0363ZM150.937 33.0286C152.527 33.0286 153.979 32.1286 153.979 30.3949C153.979 28.86 153.228 28.0484 151.229 27.2423C150.213 26.8061 149.783 26.1711 149.783 25.5638C149.783 24.9564 150.274 24.4043 151.025 24.4043C151.544 24.4043 152.151 24.6362 152.615 25.4754L153.631 24.8957C152.963 23.797 152.069 23.3608 151.141 23.3608C149.667 23.3608 148.535 24.1448 148.535 25.6466C148.535 26.5742 149.142 27.5018 150.848 28.2527C152.383 28.9484 152.731 29.4674 152.731 30.3949C152.731 31.3225 152.008 31.9851 150.964 31.9851C150.241 31.9851 149.374 31.5213 148.822 30.3949L147.867 30.8863C148.358 32.2777 149.606 33.0286 150.937 33.0286ZM157.165 46.981C158.755 46.981 160.174 46.0811 160.174 44.375C160.174 42.8124 159.451 42.0008 157.452 41.1892C156.436 40.7861 155.978 40.1456 155.978 39.5107C155.978 38.8757 156.497 38.4119 157.253 38.4119C157.772 38.4119 158.38 38.6162 158.843 39.4279L159.859 38.8481C159.191 37.777 158.297 37.3408 157.369 37.3408C155.895 37.3408 154.791 38.1248 154.791 39.599C154.791 40.5542 155.37 41.4818 157.076 42.2327C158.611 42.9008 158.987 43.4198 158.987 44.375C158.987 45.3302 158.264 45.9375 157.192 45.9375C156.469 45.9375 155.63 45.4737 155.05 44.375L154.095 44.8664C154.586 46.2246 155.834 46.981 157.165 46.981ZM144.659 33.001H144.946V23.6203H143.759V30.2514L137.448 23.5043H137.161V32.8851H138.348V26.2539L144.659 33.001ZM132.181 32.8851H133.368V23.6203H132.181V32.8851ZM143.963 46.8044H145.15V42.4039H148.391V41.3603H145.15V38.6107H148.767V37.5672H143.963V46.8044ZM136.521 45.9982C134.378 45.9982 132.672 44.2922 132.672 42.0891C132.672 39.8861 134.378 38.296 136.521 38.296C138.663 38.296 140.286 39.9745 140.286 42.0891C140.286 44.2038 138.635 45.9982 136.521 45.9982ZM136.521 47.0363C139.331 47.0363 141.528 44.9216 141.528 42.0836C141.528 39.2457 139.331 37.2801 136.521 37.2801C133.71 37.2801 131.485 39.3616 131.485 42.0836C131.485 44.8056 133.655 47.0363 136.521 47.0363Z" fill="#161617"/>
<path d="M244.976 55.5115H122.099V0.298149H244.976V55.5115ZM122.883 54.7275H244.192V1.08218H122.883V54.7275Z" fill="#161617"/>
<path d="M78.5741 26.7453L78.3312 33.8292L80.2857 35.4801H80.5894L79.3085 26.9662C79.2753 26.7233 79.3416 26.3865 79.6729 25.9889L81.1084 24.338L78.4195 22.0798H77.8674L76.7686 23.3332L79.06 25.2877C79.3637 25.5307 79.3968 25.8399 79.1207 26.1435L78.5686 26.7564L78.5741 26.7453ZM100.709 19.4461H112.856L114.198 17.0664V10.8991C114.198 9.89423 113.375 9.1599 112.182 9.1599H108.185L106.992 10.5016C106.595 10.9599 105.894 10.9267 105.469 10.5623L103.056 8.51942H102.504L101.405 9.77277L104.397 12.2739C104.795 12.6107 104.762 13.0359 104.397 13.4665L103.602 14.3831L103.967 14.6868L106.744 11.4844C107.02 11.1476 107.478 10.9046 108.146 10.9046H111.26C111.995 10.9046 112.359 11.1807 112.481 11.8212L113.243 16.0947C113.336 16.5806 113.276 16.9505 113.088 17.1603C112.69 17.6793 111.774 17.7124 110.736 17.7124H101.366L100.693 19.0873V19.4517L100.709 19.4461ZM111.879 33.3378H112.243L113.955 32.5428L112.795 26.9552C112.735 26.7122 112.856 26.403 113.221 26.011L114.656 24.3601L111.94 22.0688H111.387L110.289 23.3221L112.608 25.2767C112.911 25.5196 112.911 25.8288 112.668 26.1325L112.149 26.7453L111.873 33.3378H111.879ZM106.352 27.811L109.433 24.2994L106.838 22.0688H106.286L105.154 23.3829L107.108 25.0006C107.473 25.3043 107.473 25.7957 107.108 26.2208L105.977 27.5018L106.341 27.8054L106.352 27.811ZM86.7899 19.4461H98.7546L99.9141 17.0664V10.474C99.9141 9.6789 99.2129 9.1599 98.2963 9.1599H90.053C89.7493 9.1599 89.4732 8.97769 89.2303 8.76236L88.9542 8.51942H88.4352L87.3365 9.77277L88.7389 10.9046H97.4074C97.9264 10.9046 98.1417 11.0868 98.2025 11.5175L98.9037 16.0671C98.9644 16.5254 98.8706 16.8622 98.6884 17.1051C98.2908 17.591 97.4074 17.718 96.4301 17.718H87.4856L86.7843 19.1535V19.4572L86.7899 19.4461ZM94.0228 33.1225H102.967L103.669 31.6869C103.851 31.3225 103.729 30.9857 103.332 30.6821L101.35 29.1582C100.985 28.8821 100.864 28.3024 101.167 27.938L104.342 24.3049L101.686 22.0743H101.134L100.036 23.3553L102.051 25.0337C102.415 25.3374 102.415 25.8288 102.051 26.254L100.251 28.33L98.0203 26.6184C97.7166 26.3754 97.7442 26.0055 97.9264 25.7957L99.2074 24.3325L96.5185 22.0743H95.9663L94.8676 23.3276L97.1589 25.2215C97.4626 25.4975 97.435 25.8343 97.1921 26.138L96.6731 26.8116L101.25 31.0244C101.405 31.1459 101.372 31.4219 101.035 31.4219H94.6854L94.0118 32.7967V33.1335L94.0228 33.1225ZM83.6427 19.7829H84.0071L85.7187 18.9879L84.5593 13.4003C84.4985 13.0635 84.7415 12.7267 84.9844 12.4561L86.4199 10.8053L83.7035 8.5139H83.1513L82.0526 9.76724L84.3715 11.7218C84.6752 11.9979 84.7083 12.2739 84.4323 12.5776L83.9133 13.1905L83.6372 19.7829H83.6427ZM80.2857 21.7375H80.6225L79.3416 13.4058C79.3085 13.1629 79.3747 12.8537 79.706 12.4617L81.1416 10.8108L78.425 8.51942H77.8729L76.7742 9.77277L79.0931 11.7273C79.3968 11.9703 79.4299 12.2795 79.1539 12.5831L78.6017 13.196L78.3588 20.0921L80.2802 21.743L80.2857 21.7375ZM81.3514 33.1225H92.0683L93.2278 30.7704V24.454C93.2278 23.4767 92.4051 22.654 91.2125 22.654H88.9818L87.7285 24.0896C87.331 24.5147 86.6905 24.5479 86.2322 24.1503L83.7918 22.0743H83.0906L82.0526 23.2669L85.0451 25.8012C85.4427 26.138 85.5034 26.5963 85.139 27.0214L84.3439 27.938L84.7083 28.2416L87.4856 25.0061C87.7285 24.7025 88.2199 24.3933 88.9211 24.3933H90.5389C91.2125 24.3933 91.4554 24.7577 91.5769 25.4313L92.3112 29.7655C92.4051 30.2238 92.3112 30.5606 92.1897 30.7704C91.7922 31.3501 90.8757 31.4109 90.0861 31.4109H82.025L81.3514 32.7857V33.1225ZM93.0456 46.8264H104.281L105.441 44.4744V38.158C105.441 37.1807 104.618 36.358 103.426 36.358H101.504L100.251 37.7935C99.8534 38.2187 99.2129 38.2518 98.7546 37.8543L96.3418 35.8114H95.7897L94.6909 37.0647L97.562 39.4776C97.9595 39.8144 98.0203 40.3002 97.6559 40.7309L96.8608 41.6474L97.2252 41.9511L99.9748 38.7763C100.218 38.4727 100.737 38.1635 101.438 38.1635H102.691C103.332 38.1635 103.669 38.4064 103.757 38.9862L104.519 43.475C104.613 43.9609 104.519 44.2977 104.337 44.5406C103.912 45.0265 103.023 45.0928 101.985 45.0928H93.7136L93.04 46.4676V46.832L93.0456 46.8264ZM89.6886 47.1025H90.0861L91.7977 46.3074L90.7597 41.3935C90.5775 40.5376 90.7266 40.0794 91.6431 39.2567C92.0407 38.8592 92.4989 38.4948 93.3824 37.8543V37.2138C93.3824 36.6009 93.1394 36.358 92.5265 36.358H84.9568C84.5593 36.358 84.3439 36.2365 84.0403 36.0212L83.7642 35.8059H83.2452L82.1464 37.0592L83.4605 38.158H90.7873C91.2456 38.158 91.4885 38.4009 91.4885 38.6438C91.4885 38.7984 91.4278 38.9199 91.3063 39.0414L89.9039 40.4438L89.6886 47.097V47.1025ZM76.9895 47.2847C80.0704 46.4896 82.8476 45.3302 84.62 42.9505C84.9237 42.2493 85.1997 41.2113 85.4151 39.8364L85.1114 39.5604C84.7138 40.7806 83.6758 42.3376 82.82 42.7959C82.544 42.9505 82.2072 42.9781 81.9642 42.702L80.0428 40.626C79.8275 40.4107 79.7391 40.2616 79.7391 40.0739C79.7391 39.8861 79.833 39.7094 80.0152 39.4941L81.1747 38.1524L78.425 35.8003H77.8729L76.7742 37.0537L79.0931 39.0082C79.3968 39.2512 79.4299 39.5604 79.1539 39.864L78.6017 40.4769L80.7992 43.9885C80.0649 44.4136 78.7232 44.905 77.7183 45.0872L76.7742 47.0418L76.9895 47.2847ZM106.264 47.0749C110.14 46.0976 113.099 44.3253 114.198 42.1885V37.3353C114.198 36.8163 113.646 36.358 112.944 36.358H109.096C108.301 36.358 108.03 36.2034 107.964 35.8059L107.688 34.3703C107.627 34.1274 107.749 33.8182 108.113 33.4262L109.549 31.7753L107.169 29.76H106.65L105.518 31.041L107.5 32.6918C107.655 32.8133 107.743 32.9955 107.743 33.1501C107.743 33.2716 107.683 33.4262 107.561 33.5476L107.042 34.1605V37.6997C107.346 38.0365 107.655 38.158 108.235 38.158H112.05C112.387 38.158 112.602 38.3126 112.663 38.6162L113.182 41.3327C113.276 41.791 113.149 42.0063 112.939 42.2161C111.686 43.4363 109.582 44.1707 106.987 44.905L106.043 46.8596L106.258 47.0749H106.264Z" fill="#161617"/>
<path d="M122.883 55.5115H68.5529V0.298149H122.883V55.5115ZM69.3369 54.7275H122.099V1.08218H69.3369V54.7275Z" fill="#161617"/>
</svg>
